<svg width="17" height="18" viewBox="0 0 17 18" fill="none" xmlns="http://www.w3.org/2000/svg">
<path d="M8.60244 15.771C4.79971 15.771 1.70832 12.6796 1.70832 8.87685C1.70832 5.07413 4.79971 1.98273 8.60244 1.98273C12.4052 1.98273 15.4966 5.07413 15.4966 8.87685C15.4966 12.6796 12.4052 15.771 8.60244 15.771ZM8.60244 2.1865C4.91332 2.1865 1.91208 5.18773 1.91208 8.87685C1.91208 12.566 4.91332 15.5672 8.60244 15.5672C12.2916 15.5672 15.2928 12.566 15.2928 8.87685C15.2928 5.18773 12.2916 2.1865 8.60244 2.1865Z" fill="#B80217" stroke="#B80217" stroke-width="0.815068"/>
<path d="M6.7519 10.8702L6.75173 10.8701L6.74214 10.8803C6.73947 10.8832 6.7337 10.8881 6.72235 10.8926C6.71045 10.8973 6.6955 10.9003 6.68008 10.9003C6.66567 10.9003 6.65302 10.8977 6.64216 10.8933C6.63168 10.8891 6.62023 10.8822 6.60826 10.8702C6.59072 10.8527 6.5799 10.8276 6.5799 10.7984C6.5799 10.7692 6.59072 10.7441 6.60826 10.7266L10.4527 6.88219C10.4702 6.86464 10.4953 6.85382 10.5245 6.85382C10.5537 6.85382 10.5788 6.86464 10.5963 6.88219C10.6139 6.89974 10.6247 6.92479 10.6247 6.95401C10.6247 6.98323 10.6139 7.00828 10.5963 7.02583L6.7519 10.8702Z" fill="#B80217" stroke="#B80217" stroke-width="0.815068"/>
<path d="M10.5245 11.3078C10.3954 11.3078 10.2664 11.2603 10.1645 11.1584L6.32009 7.314C6.12312 7.11702 6.12312 6.791 6.32009 6.59402C6.51707 6.39705 6.8431 6.39705 7.04007 6.59402L10.8845 10.4384C11.0815 10.6354 11.0815 10.9614 10.8845 11.1584C10.7826 11.2603 10.6535 11.3078 10.5245 11.3078Z" fill="#B80217"/>
</svg>
