<svg width="52" height="52" viewBox="0 0 52 52" fill="none" xmlns="http://www.w3.org/2000/svg">
<g filter="url(#filter0_d_2074_2239)">
<rect x="2" y="1" width="48" height="48" rx="10" fill="#D1FADF"/>
<rect x="2.5" y="1.5" width="47" height="47" rx="9.5" stroke="#EAECF0"/>
<path d="M24.0827 30.2107L32.6107 21.6827L31.6667 20.7387L24.0827 28.3227L20.2827 24.5227L19.3387 25.4667L24.0827 30.2107ZM26.004 37C24.3453 37 22.7853 36.6853 21.324 36.056C19.8636 35.4258 18.5929 34.5707 17.512 33.4907C16.4311 32.4116 15.5756 31.1422 14.9453 29.6827C14.3151 28.2231 14 26.6636 14 25.004C14 23.3453 14.3147 21.7853 14.944 20.324C15.5742 18.8636 16.4293 17.5929 17.5093 16.512C18.5884 15.4311 19.8578 14.5756 21.3173 13.9453C22.7769 13.3151 24.3364 13 25.996 13C27.6547 13 29.2147 13.3147 30.676 13.944C32.1364 14.5742 33.4071 15.4293 34.488 16.5093C35.5689 17.5884 36.4244 18.8578 37.0547 20.3173C37.6849 21.7769 38 23.3364 38 24.996C38 26.6547 37.6853 28.2147 37.056 29.676C36.4258 31.1364 35.5707 32.4071 34.4907 33.488C33.4116 34.5689 32.1422 35.4244 30.6827 36.0547C29.2231 36.6849 27.6636 37 26.004 37ZM26 35.6667C28.9778 35.6667 31.5 34.6333 33.5667 32.5667C35.6333 30.5 36.6667 27.9778 36.6667 25C36.6667 22.0222 35.6333 19.5 33.5667 17.4333C31.5 15.3667 28.9778 14.3333 26 14.3333C23.0222 14.3333 20.5 15.3667 18.4333 17.4333C16.3667 19.5 15.3333 22.0222 15.3333 25C15.3333 27.9778 16.3667 30.5 18.4333 32.5667C20.5 34.6333 23.0222 35.6667 26 35.6667Z" fill="#344054"/>
</g>
<defs>
<filter id="filter0_d_2074_2239" x="0" y="0" width="52" height="52" filterUnits="userSpaceOnUse" color-interpolation-filters="sRGB">
<feFlood flood-opacity="0" result="BackgroundImageFix"/>
<feColorMatrix in="SourceAlpha" type="matrix" values="0 0 0 0 0 0 0 0 0 0 0 0 0 0 0 0 0 0 127 0" result="hardAlpha"/>
<feOffset dy="1"/>
<feGaussianBlur stdDeviation="1"/>
<feColorMatrix type="matrix" values="0 0 0 0 0.0627451 0 0 0 0 0.0941176 0 0 0 0 0.156863 0 0 0 0.05 0"/>
<feBlend mode="normal" in2="BackgroundImageFix" result="effect1_dropShadow_2074_2239"/>
<feBlend mode="normal" in="SourceGraphic" in2="effect1_dropShadow_2074_2239" result="shape"/>
</filter>
</defs>
</svg>
