<svg width="283" height="48" viewBox="0 0 283 48" fill="none" xmlns="http://www.w3.org/2000/svg">
<rect width="48" height="48" rx="24" fill="#008080"/>
<path d="M26 18.5C26 19.8928 25.6121 21.2582 24.8799 22.443C24.1476 23.6278 23.0999 24.5853 21.8541 25.2082C20.6083 25.8311 19.2137 26.0948 17.8265 25.9697C16.4392 25.8446 15.1143 25.3357 14 24.5V32.25C14 33.2446 14.3951 34.1984 15.0983 34.9017C15.8016 35.6049 16.7554 36 17.75 36H26V29.75C26 28.7554 26.3951 27.8016 27.0983 27.0983C27.8016 26.3951 28.7554 26 29.75 26H36V17.75C36 16.7554 35.6049 15.8016 34.9017 15.0983C34.1984 14.3951 33.2446 14 32.25 14H24.5C25.4759 15.2971 26.0025 16.8768 26 18.5ZM27.75 35.625L27.1416 36L27.5 29.75C27.5 29.1533 27.7371 28.581 28.159 28.159C28.581 27.7371 29.1533 27.5 29.75 27.5L36 27.0031L35.625 27.75L27.75 35.625ZM18.5 25C20.2239 25 21.8772 24.3152 23.0962 23.0962C24.3152 21.8772 25 20.2239 25 18.5C25 16.7761 24.3152 15.1228 23.0962 13.9038C21.8772 12.6848 20.2239 12 18.5 12C16.7761 12 15.1228 12.6848 13.9038 13.9038C12.6848 15.1228 12 16.7761 12 18.5C12 20.2239 12.6848 21.8772 13.9038 23.0962C15.1228 24.3152 16.7761 25 18.5 25ZM18.5 14C18.6326 14 18.7598 14.0527 18.8536 14.1464C18.9473 14.2402 19 14.3674 19 14.5V18H22.5C22.6326 18 22.7598 18.0527 22.8536 18.1464C22.9473 18.2402 23 18.3674 23 18.5C23 18.6326 22.9473 18.7598 22.8536 18.8536C22.7598 18.9473 22.6326 19 22.5 19H19V22.5C19 22.6326 18.9473 22.7598 18.8536 22.8536C18.7598 22.9473 18.6326 23 18.5 23C18.3674 23 18.2402 22.9473 18.1464 22.8536C18.0527 22.7598 18 22.6326 18 22.5V19H14.5C14.3674 19 14.2402 18.9473 14.1464 18.8536C14.0527 18.7598 14 18.6326 14 18.5C14 18.3674 14.0527 18.2402 14.1464 18.1464C14.2402 18.0527 14.3674 18 14.5 18H18V14.5C18 14.3674 18.0527 14.2402 18.1464 14.1464C18.2402 14.0527 18.3674 14 18.5 14Z" fill="white"/>
<path d="M83.6392 19.7597H78.3267C78.1752 18.8885 77.8958 18.1167 77.4886 17.4443C77.0814 16.7625 76.5748 16.1849 75.9688 15.7114C75.3627 15.2379 74.6714 14.8828 73.8949 14.646C73.1278 14.3998 72.2992 14.2767 71.4091 14.2767C69.8277 14.2767 68.4261 14.6744 67.2045 15.4699C65.983 16.2559 65.0265 17.4112 64.3352 18.9358C63.6439 20.451 63.2983 22.3023 63.2983 24.4898C63.2983 26.7152 63.6439 28.5902 64.3352 30.1148C65.036 31.6299 65.9924 32.7758 67.2045 33.5523C68.4261 34.3193 69.8229 34.7029 71.3949 34.7029C72.2661 34.7029 73.0805 34.5892 73.8381 34.3619C74.6051 34.1252 75.2917 33.7796 75.8977 33.325C76.5133 32.8705 77.0294 32.3118 77.446 31.6489C77.8722 30.986 78.1657 30.2284 78.3267 29.3762L83.6392 29.4046C83.4403 30.7871 83.0095 32.0845 82.3466 33.2966C81.6932 34.5087 80.8362 35.5788 79.7756 36.5068C78.715 37.4254 77.4744 38.1451 76.054 38.6659C74.6335 39.1773 73.0568 39.433 71.3239 39.433C68.767 39.433 66.4848 38.8411 64.4773 37.6574C62.4697 36.4737 60.8883 34.7644 59.733 32.5296C58.5777 30.2947 58 27.6148 58 24.4898C58 21.3553 58.5824 18.6754 59.7472 16.45C60.9119 14.2152 62.4981 12.5059 64.5057 11.3222C66.5133 10.1385 68.786 9.54661 71.3239 9.54661C72.9432 9.54661 74.4489 9.77388 75.8409 10.2284C77.233 10.683 78.4735 11.3506 79.5625 12.2313C80.6515 13.1025 81.5464 14.1726 82.2472 15.4415C82.9574 16.701 83.4214 18.1404 83.6392 19.7597Z" fill="#008080"/>
<path d="M93.38 9.94434V39.0352H88.2379V9.94434H93.38Z" fill="#008080"/>
<path d="M98.6676 39.0352V17.2171H103.81V39.0352H98.6676ZM101.253 14.1205C100.438 14.1205 99.7377 13.8506 99.1506 13.3108C98.5634 12.7616 98.2699 12.1034 98.2699 11.3364C98.2699 10.5599 98.5634 9.90172 99.1506 9.36195C99.7377 8.81271 100.438 8.53809 101.253 8.53809C102.077 8.53809 102.777 8.81271 103.355 9.36195C103.942 9.90172 104.236 10.5599 104.236 11.3364C104.236 12.1034 103.942 12.7616 103.355 13.3108C102.777 13.8506 102.077 14.1205 101.253 14.1205Z" fill="#008080"/>
<path d="M114.239 26.2512V39.0352H109.097V17.2171H114.012V20.9244H114.268C114.77 19.7029 115.57 18.7322 116.668 18.0125C117.776 17.2928 119.145 16.933 120.773 16.933C122.279 16.933 123.591 17.2549 124.708 17.8989C125.835 18.5428 126.706 19.4756 127.322 20.6972C127.947 21.9188 128.254 23.4008 128.245 25.1432V39.0352H123.103V25.9387C123.103 24.4803 122.724 23.3392 121.967 22.5154C121.219 21.6915 120.182 21.2796 118.856 21.2796C117.956 21.2796 117.156 21.4784 116.455 21.8762C115.764 22.2644 115.219 22.8279 114.822 23.5665C114.433 24.3051 114.239 25.2 114.239 26.2512Z" fill="#008080"/>
<path d="M133.472 39.0352V17.2171H138.614V39.0352H133.472ZM136.058 14.1205C135.243 14.1205 134.542 13.8506 133.955 13.3108C133.368 12.7616 133.075 12.1034 133.075 11.3364C133.075 10.5599 133.368 9.90172 133.955 9.36195C134.542 8.81271 135.243 8.53809 136.058 8.53809C136.881 8.53809 137.582 8.81271 138.16 9.36195C138.747 9.90172 139.04 10.5599 139.04 11.3364C139.04 12.1034 138.747 12.7616 138.16 13.3108C137.582 13.8506 136.881 14.1205 136.058 14.1205Z" fill="#008080"/>
<path d="M153.419 39.4614C151.241 39.4614 149.371 38.9832 147.808 38.0267C146.255 37.0703 145.057 35.7493 144.214 34.0637C143.381 32.3686 142.964 30.4178 142.964 28.2114C142.964 25.9955 143.391 24.04 144.243 22.3449C145.095 20.6404 146.298 19.3146 147.851 18.3676C149.413 17.4112 151.26 16.933 153.391 16.933C155.161 16.933 156.729 17.2597 158.092 17.9131C159.465 18.557 160.559 19.4709 161.374 20.6546C162.188 21.8288 162.652 23.2019 162.766 24.7739H157.851C157.652 23.7227 157.179 22.8468 156.43 22.146C155.692 21.4358 154.702 21.0807 153.462 21.0807C152.411 21.0807 151.487 21.3648 150.692 21.933C149.896 22.4917 149.276 23.2966 148.831 24.3477C148.395 25.3989 148.178 26.6583 148.178 28.1262C148.178 29.6129 148.395 30.8913 148.831 31.9614C149.267 33.022 149.877 33.8411 150.663 34.4188C151.459 34.9869 152.392 35.271 153.462 35.271C154.219 35.271 154.896 35.129 155.493 34.8449C156.099 34.5513 156.606 34.1299 157.013 33.5807C157.42 33.0315 157.699 32.3638 157.851 31.5779H162.766C162.643 33.1214 162.188 34.4898 161.402 35.683C160.616 36.8667 159.546 37.7947 158.192 38.4671C156.838 39.1299 155.247 39.4614 153.419 39.4614Z" fill="#008080"/>
<path d="M167.215 9.94434H173.664L182.3 31.0239H182.641L191.278 9.94434H197.727V39.0352H192.67V19.0494H192.4L184.36 38.95H180.582L172.542 19.0068H172.272V39.0352H167.215V9.94434Z" fill="#008080"/>
<path d="M212.897 39.4614C210.71 39.4614 208.82 39.0068 207.229 38.0977C205.648 37.1792 204.431 35.8818 203.579 34.2057C202.727 32.5201 202.3 30.5362 202.3 28.254C202.3 26.0097 202.727 24.04 203.579 22.3449C204.441 20.6404 205.643 19.3146 207.187 18.3676C208.73 17.4112 210.544 16.933 212.627 16.933C213.972 16.933 215.241 17.1508 216.434 17.5864C217.637 18.0125 218.697 18.6754 219.616 19.575C220.544 20.4746 221.273 21.6205 221.803 23.0125C222.334 24.3951 222.599 26.0428 222.599 27.9557V29.5324H204.715V26.0665H217.67C217.66 25.0816 217.447 24.2057 217.031 23.4387C216.614 22.6621 216.031 22.0513 215.283 21.6063C214.545 21.1612 213.683 20.9387 212.698 20.9387C211.647 20.9387 210.724 21.1943 209.928 21.7057C209.133 22.2076 208.513 22.8705 208.067 23.6943C207.632 24.5087 207.409 25.4036 207.4 26.379V29.4046C207.4 30.6735 207.632 31.7625 208.096 32.6716C208.56 33.5712 209.209 34.2625 210.042 34.7455C210.875 35.219 211.851 35.4557 212.968 35.4557C213.716 35.4557 214.393 35.3515 214.999 35.1432C215.605 34.9254 216.131 34.6082 216.576 34.1915C217.021 33.7748 217.357 33.2587 217.585 32.6432L222.386 33.183C222.083 34.4519 221.505 35.5599 220.653 36.5068C219.81 37.4443 218.73 38.1735 217.414 38.6943C216.098 39.2057 214.592 39.4614 212.897 39.4614Z" fill="#008080"/>
<path d="M226.949 39.0352V17.2171H231.864V20.9244H232.119C232.574 19.6744 233.327 18.6991 234.378 17.9983C235.429 17.2881 236.684 16.933 238.142 16.933C239.619 16.933 240.865 17.2928 241.878 18.0125C242.901 18.7227 243.62 19.6934 244.037 20.9244H244.264C244.747 19.7123 245.562 18.7464 246.707 18.0267C247.863 17.2976 249.231 16.933 250.812 16.933C252.82 16.933 254.458 17.5674 255.727 18.8364C256.996 20.1053 257.631 21.9566 257.631 24.3904V39.0352H252.474V25.1858C252.474 23.8316 252.115 22.8421 251.395 22.2171C250.675 21.5826 249.795 21.2654 248.753 21.2654C247.512 21.2654 246.542 21.6536 245.841 22.4301C245.15 23.1972 244.804 24.1962 244.804 25.4273V39.0352H239.761V24.9727C239.761 23.8459 239.42 22.9462 238.739 22.2739C238.066 21.6015 237.186 21.2654 236.097 21.2654C235.358 21.2654 234.686 21.4548 234.08 21.8335C233.473 22.2029 232.991 22.7284 232.631 23.4102C232.271 24.0826 232.091 24.8686 232.091 25.7682V39.0352H226.949Z" fill="#008080"/>
<path d="M272.364 39.4614C270.234 39.4614 268.387 38.9926 266.825 38.0551C265.262 37.1176 264.05 35.8061 263.188 34.1205C262.336 32.4349 261.91 30.4652 261.91 28.2114C261.91 25.9576 262.336 23.9832 263.188 22.2881C264.05 20.593 265.262 19.2767 266.825 18.3392C268.387 17.4017 270.234 16.933 272.364 16.933C274.495 16.933 276.342 17.4017 277.904 18.3392C279.467 19.2767 280.674 20.593 281.526 22.2881C282.388 23.9832 282.819 25.9576 282.819 28.2114C282.819 30.4652 282.388 32.4349 281.526 34.1205C280.674 35.8061 279.467 37.1176 277.904 38.0551C276.342 38.9926 274.495 39.4614 272.364 39.4614ZM272.393 35.3421C273.548 35.3421 274.514 35.0248 275.29 34.3904C276.067 33.7464 276.645 32.8847 277.023 31.8051C277.412 30.7256 277.606 29.5229 277.606 28.1972C277.606 26.8619 277.412 25.6546 277.023 24.575C276.645 23.486 276.067 22.6195 275.29 21.9756C274.514 21.3316 273.548 21.0097 272.393 21.0097C271.209 21.0097 270.224 21.3316 269.438 21.9756C268.662 22.6195 268.079 23.486 267.691 24.575C267.312 25.6546 267.123 26.8619 267.123 28.1972C267.123 29.5229 267.312 30.7256 267.691 31.8051C268.079 32.8847 268.662 33.7464 269.438 34.3904C270.224 35.0248 271.209 35.3421 272.393 35.3421Z" fill="#008080"/>
</svg>
