<svg width="60" height="60" viewBox="0 0 60 60" fill="none" xmlns="http://www.w3.org/2000/svg">
<path d="M51.25 25.475H44.025C38.1 25.475 33.275 20.65 33.275 14.725V7.5C33.275 6.125 32.15 5 30.775 5H20.175C12.475 5 6.25 10 6.25 18.925V41.075C6.25 50 12.475 55 20.175 55H39.825C47.525 55 53.75 50 53.75 41.075V27.975C53.75 26.6 52.625 25.475 51.25 25.475ZM34.375 37.35C34.375 37.475 34.375 37.625 34.375 37.75C34.325 38.1 34.175 38.425 33.925 38.725C33.9 38.75 33.85 38.8 33.825 38.825L28.825 43.825C28.45 44.2 27.975 44.375 27.5 44.375C27.025 44.375 26.55 44.2 26.175 43.825C25.45 43.1 25.45 41.9 26.175 41.175L27.975 39.375H17.5C16.475 39.375 15.625 38.525 15.625 37.5C15.625 36.475 16.475 35.625 17.5 35.625H27.975L26.175 33.825C25.8 33.45 25.625 32.975 25.625 32.5C25.625 32.025 25.8 31.55 26.175 31.175C26.9 30.45 28.1 30.45 28.825 31.175L33.825 36.175C34.15 36.525 34.325 36.925 34.375 37.35Z" fill="#008080"/>
<path d="M43.5742 22.0262C45.9492 22.0512 49.2492 22.0512 52.0742 22.0512C53.4992 22.0512 54.2492 20.3762 53.2492 19.3762C49.6492 15.7512 43.1992 9.2262 39.4992 5.5262C38.4742 4.5012 36.6992 5.2012 36.6992 6.6262V15.3512C36.6992 19.0012 39.7992 22.0262 43.5742 22.0262Z" fill="#008080"/>
</svg>
