<svg width="20" height="20" viewBox="0 0 20 20" fill="none" xmlns="http://www.w3.org/2000/svg">
<mask id="path-1-inside-1_1557_1748" fill="white">
<path d="M7.50003 14.7917C7.15837 14.7917 6.87503 14.5084 6.87503 14.1667V10.6751L6.27503 11.2751C6.03337 11.5167 5.63337 11.5167 5.3917 11.2751C5.15003 11.0334 5.15003 10.6334 5.3917 10.3917L7.05837 8.72507C7.23337 8.55007 7.50837 8.49174 7.7417 8.59174C7.97503 8.68341 8.12503 8.91674 8.12503 9.16674V14.1667C8.12503 14.5084 7.8417 14.7917 7.50003 14.7917Z"/>
</mask>
<path d="M6.87503 10.6751H8.37503V7.05375L5.81437 9.61441L6.87503 10.6751ZM6.27503 11.2751L5.21437 10.2144L5.21437 10.2144L6.27503 11.2751ZM5.3917 10.3917L4.33104 9.33108L4.33104 9.33108L5.3917 10.3917ZM7.05837 8.72507L8.11903 9.78573L8.11903 9.78573L7.05837 8.72507ZM7.7417 8.59174L7.15082 9.97046L7.17189 9.97949L7.19322 9.98787L7.7417 8.59174ZM7.50003 13.2917C7.98679 13.2917 8.37503 13.68 8.37503 14.1667H5.37503C5.37503 15.3368 6.32994 16.2917 7.50003 16.2917V13.2917ZM8.37503 14.1667V10.6751H5.37503V14.1667H8.37503ZM5.81437 9.61441L5.21437 10.2144L7.33569 12.3357L7.93569 11.7357L5.81437 9.61441ZM5.21437 10.2144C5.55849 9.87029 6.10824 9.87029 6.45236 10.2144L4.33104 12.3357C5.15849 13.1632 6.50824 13.1632 7.33569 12.3357L5.21437 10.2144ZM6.45236 10.2144C6.79648 10.5585 6.79648 11.1083 6.45236 11.4524L4.33104 9.33108C3.50359 10.1585 3.50359 11.5083 4.33104 12.3357L6.45236 10.2144ZM6.45236 11.4524L8.11903 9.78573L5.99771 7.66441L4.33104 9.33108L6.45236 11.4524ZM8.11903 9.78573C7.87258 10.0322 7.49702 10.1188 7.15082 9.97046L8.33258 7.21302C7.51971 6.86465 6.59415 7.06796 5.99771 7.66441L8.11903 9.78573ZM7.19322 9.98787C6.81911 9.84089 6.62503 9.49677 6.62503 9.16674H9.62503C9.62503 8.33671 9.13096 7.52592 8.29018 7.19561L7.19322 9.98787ZM6.62503 9.16674V14.1667H9.62503V9.16674H6.62503ZM6.62503 14.1667C6.62503 13.68 7.01327 13.2917 7.50003 13.2917V16.2917C8.67013 16.2917 9.62503 15.3368 9.62503 14.1667H6.62503Z" fill="#008080" mask="url(#path-1-inside-1_1557_1748)"/>
<mask id="path-3-inside-2_1557_1748" fill="white">
<path d="M9.16654 11.4585C9.0082 11.4585 8.84987 11.4002 8.72487 11.2752L7.0582 9.60853C6.81654 9.36686 6.81654 8.96686 7.0582 8.7252C7.29987 8.48353 7.69987 8.48353 7.94154 8.7252L9.6082 10.3919C9.84987 10.6335 9.84987 11.0335 9.6082 11.2752C9.4832 11.4002 9.32487 11.4585 9.16654 11.4585Z"/>
</mask>
<path d="M8.72487 11.2752L7.66421 12.3359L8.72487 11.2752ZM7.0582 9.60853L8.11886 8.54787L7.0582 9.60853ZM7.94154 8.7252L6.88088 9.78586L7.94154 8.7252ZM9.6082 10.3919L10.6689 9.3312L9.6082 10.3919ZM9.16654 9.95853C9.38456 9.95853 9.6144 10.0434 9.78553 10.2145L7.66421 12.3359C8.08534 12.757 8.63184 12.9585 9.16654 12.9585V9.95853ZM9.78553 10.2145L8.11886 8.54787L5.99754 10.6692L7.66421 12.3359L9.78553 10.2145ZM8.11886 8.54787C8.46298 8.89199 8.46298 9.44174 8.11886 9.78586L5.99754 7.66454C5.17009 8.49199 5.17009 9.84174 5.99754 10.6692L8.11886 8.54787ZM8.11886 9.78586C7.77474 10.13 7.225 10.13 6.88088 9.78586L9.0022 7.66454C8.17474 6.83708 6.825 6.83708 5.99754 7.66454L8.11886 9.78586ZM6.88088 9.78586L8.54754 11.4525L10.6689 9.3312L9.0022 7.66454L6.88088 9.78586ZM8.54754 11.4525C8.20342 11.1084 8.20342 10.5587 8.54754 10.2145L10.6689 12.3359C11.4963 11.5084 11.4963 10.1587 10.6689 9.3312L8.54754 11.4525ZM8.54754 10.2145C8.71867 10.0434 8.94851 9.95853 9.16654 9.95853V12.9585C9.70123 12.9585 10.2477 12.757 10.6689 12.3359L8.54754 10.2145Z" fill="#008080" mask="url(#path-3-inside-2_1557_1748)"/>
<mask id="path-5-inside-3_1557_1748" fill="white">
<path d="M12.4998 18.9587H7.49984C2.97484 18.9587 1.0415 17.0253 1.0415 12.5003V7.50033C1.0415 2.97533 2.97484 1.04199 7.49984 1.04199H11.6665C12.0082 1.04199 12.2915 1.32533 12.2915 1.66699C12.2915 2.00866 12.0082 2.29199 11.6665 2.29199H7.49984C3.65817 2.29199 2.2915 3.65866 2.2915 7.50033V12.5003C2.2915 16.342 3.65817 17.7087 7.49984 17.7087H12.4998C16.3415 17.7087 17.7082 16.342 17.7082 12.5003V8.33366C17.7082 7.99199 17.9915 7.70866 18.3332 7.70866C18.6748 7.70866 18.9582 7.99199 18.9582 8.33366V12.5003C18.9582 17.0253 17.0248 18.9587 12.4998 18.9587Z"/>
</mask>
<path d="M12.4998 17.4587H7.49984V20.4587H12.4998V17.4587ZM7.49984 17.4587C5.40952 17.4587 4.27503 17.0063 3.63446 16.3657C2.99389 15.7251 2.5415 14.5906 2.5415 12.5003H-0.458496C-0.458496 14.935 0.0557884 17.0297 1.51314 18.487C2.97048 19.9444 5.06515 20.4587 7.49984 20.4587V17.4587ZM2.5415 12.5003V7.50033H-0.458496V12.5003H2.5415ZM2.5415 7.50033C2.5415 5.41001 2.99389 4.27551 3.63446 3.63494C4.27503 2.99437 5.40952 2.54199 7.49984 2.54199V-0.458008C5.06515 -0.458008 2.97048 0.0562767 1.51314 1.51362C0.0557884 2.97097 -0.458496 5.06564 -0.458496 7.50033H2.5415ZM7.49984 2.54199H11.6665V-0.458008H7.49984V2.54199ZM11.6665 2.54199C11.1797 2.54199 10.7915 2.15375 10.7915 1.66699H13.7915C13.7915 0.496898 12.8366 -0.458008 11.6665 -0.458008V2.54199ZM10.7915 1.66699C10.7915 1.18023 11.1797 0.791992 11.6665 0.791992V3.79199C12.8366 3.79199 13.7915 2.83709 13.7915 1.66699H10.7915ZM11.6665 0.791992H7.49984V3.79199H11.6665V0.791992ZM7.49984 0.791992C5.47317 0.791992 3.65239 1.13687 2.39439 2.39487C1.13638 3.65288 0.791504 5.47366 0.791504 7.50033H3.7915C3.7915 5.68532 4.12996 4.90194 4.51571 4.51619C4.90145 4.13045 5.68483 3.79199 7.49984 3.79199V0.791992ZM0.791504 7.50033V12.5003H3.7915V7.50033H0.791504ZM0.791504 12.5003C0.791504 14.527 1.13638 16.3478 2.39439 17.6058C3.65239 18.8638 5.47317 19.2087 7.49984 19.2087V16.2087C5.68483 16.2087 4.90145 15.8702 4.51571 15.4845C4.12996 15.0987 3.7915 14.3153 3.7915 12.5003H0.791504ZM7.49984 19.2087H12.4998V16.2087H7.49984V19.2087ZM12.4998 19.2087C14.5265 19.2087 16.3473 18.8638 17.6053 17.6058C18.8633 16.3478 19.2082 14.527 19.2082 12.5003H16.2082C16.2082 14.3153 15.8697 15.0987 15.484 15.4845C15.0982 15.8702 14.3148 16.2087 12.4998 16.2087V19.2087ZM19.2082 12.5003V8.33366H16.2082V12.5003H19.2082ZM19.2082 8.33366C19.2082 8.82042 18.8199 9.20866 18.3332 9.20866V6.20866C17.1631 6.20866 16.2082 7.16357 16.2082 8.33366H19.2082ZM18.3332 9.20866C17.8464 9.20866 17.4582 8.82042 17.4582 8.33366H20.4582C20.4582 7.16357 19.5033 6.20866 18.3332 6.20866V9.20866ZM17.4582 8.33366V12.5003H20.4582V8.33366H17.4582ZM17.4582 12.5003C17.4582 14.5906 17.0058 15.7251 16.3652 16.3657C15.7246 17.0063 14.5902 17.4587 12.4998 17.4587V20.4587C14.9345 20.4587 17.0292 19.9444 18.4865 18.487C19.9439 17.0297 20.4582 14.935 20.4582 12.5003H17.4582Z" fill="#008080" mask="url(#path-5-inside-3_1557_1748)"/>
<path d="M18.3332 8.9584H14.9998C12.1498 8.9584 11.0415 7.85007 11.0415 5.00007V1.66674C11.0415 1.41674 11.1915 1.18341 11.4248 1.09174C11.6582 0.991739 11.9248 1.05007 12.1082 1.22507L18.7748 7.89174C18.9498 8.06674 19.0082 8.34174 18.9082 8.57507C18.8082 8.8084 18.5832 8.9584 18.3332 8.9584ZM12.2915 3.17507V5.00007C12.2915 7.15007 12.8498 7.70841 14.9998 7.70841H16.8248L12.2915 3.17507Z" fill="#008080"/>
</svg>
