<svg width="336" height="150" viewBox="0 0 336 150" fill="none" xmlns="http://www.w3.org/2000/svg">
<rect width="336" height="150" rx="8" fill="#CCE6E6"/>
<g clip-path="url(#clip0_1649_2306)">
<path d="M173.319 27.8395C178.859 23.7469 186.659 22.178 192.762 25.3708C185.891 28.3539 180.297 33.6711 176.969 40.3817C175.695 42.9743 174.549 45.9906 171.92 47.1888C170.285 47.9344 168.354 47.7904 166.661 47.1884C164.967 46.5863 163.461 45.5635 161.975 44.5516L161.53 44.498C164.173 38.1377 167.779 31.9321 173.319 27.8395Z" fill="#F0F0F0"/>
<path d="M192.713 25.5076C187.014 25.6861 181.517 27.6556 177.002 31.1363C176.016 31.8684 175.153 32.7512 174.442 33.7522C173.782 34.7497 173.4 35.9059 173.338 37.1007C173.257 38.2135 173.303 39.3611 172.953 40.4349C172.766 40.9819 172.465 41.4832 172.071 41.9058C171.676 42.3284 171.197 42.6628 170.664 42.8872C169.351 43.4807 167.903 43.567 166.483 43.6021C164.908 43.6411 163.271 43.6567 161.838 44.3986C161.664 44.4885 161.535 44.2139 161.708 44.1241C164.201 42.8333 167.115 43.6755 169.735 42.9073C170.957 42.5488 172.08 41.8197 172.57 40.5998C173 39.5331 172.953 38.3496 173.025 37.2221C173.069 36.0557 173.398 34.9178 173.983 33.9079C174.64 32.8739 175.469 31.9593 176.433 31.2032C178.576 29.4664 180.979 28.0775 183.553 27.0871C186.486 25.9406 189.592 25.3041 192.739 25.2052C192.934 25.1991 192.906 25.5016 192.713 25.5076Z" fill="white"/>
<path d="M178.39 29.9292C177.909 29.0924 177.74 28.1117 177.916 27.1625C178.091 26.2132 178.598 25.3571 179.346 24.747C179.498 24.6241 179.696 24.8542 179.544 24.9772C178.846 25.5441 178.374 26.3416 178.213 27.2259C178.051 28.1102 178.212 29.023 178.664 29.7996C178.762 29.9685 178.487 30.0971 178.39 29.9292Z" fill="white"/>
<path d="M173.304 36.5301C175.205 37.0613 177.235 36.8567 178.992 35.9571C179.166 35.8678 179.295 36.1424 179.121 36.2316C177.292 37.1644 175.178 37.373 173.202 36.8159C173.013 36.7627 173.117 36.4772 173.304 36.5301Z" fill="white"/>
<path d="M186.471 26.3426C186.59 26.7052 186.797 27.0326 187.073 27.2955C187.35 27.5583 187.687 27.7484 188.055 27.8486C188.244 27.8994 188.141 28.1849 187.953 28.1344C187.547 28.0218 187.174 27.8114 186.868 27.5217C186.562 27.2319 186.331 26.8716 186.197 26.4722C186.181 26.4356 186.18 26.3944 186.193 26.3568C186.206 26.3193 186.234 26.2883 186.269 26.2701C186.306 26.2532 186.347 26.2512 186.385 26.2648C186.423 26.2784 186.454 26.3063 186.471 26.3426Z" fill="white"/>
<path d="M197.601 48.1843C197.482 48.1559 197.363 48.1275 197.242 48.1008C195.642 47.7276 194.014 47.485 192.375 47.3754C192.248 47.3649 192.12 47.3562 191.993 47.3494C188.04 47.1274 184.081 47.6412 180.316 48.8646C178.818 49.3528 177.36 49.9543 175.954 50.6637C174.011 51.6436 171.983 52.8607 169.892 53.1337C169.674 53.1646 169.455 53.182 169.235 53.1858L161.499 45.0459C161.49 45.0186 161.48 44.9929 161.472 44.9655L161.148 44.6546C161.218 44.6129 161.292 44.5712 161.362 44.5296C161.402 44.5052 161.444 44.4827 161.485 44.4584C161.512 44.4428 161.54 44.4272 161.564 44.4115C161.573 44.4062 161.582 44.4011 161.59 44.3976C161.614 44.3819 161.637 44.3699 161.66 44.356C162.07 44.1217 162.482 43.89 162.897 43.6607C162.899 43.6589 162.899 43.6589 162.902 43.659C166.067 41.92 169.405 40.4301 172.863 39.4941C172.967 39.466 173.073 39.436 173.181 39.4116C174.742 38.9983 176.334 38.7134 177.941 38.5595C178.822 38.4781 179.706 38.4413 180.59 38.4493C182.875 38.4743 185.141 38.8585 187.306 39.5879C191.622 41.0424 195.425 43.8611 197.449 47.876C197.501 47.9788 197.551 48.0798 197.601 48.1843Z" fill="#F0F0F0"/>
<path d="M197.48 48.2642C192.823 44.976 187.248 43.2388 181.547 43.2994C180.319 43.2906 179.098 43.4754 177.928 43.847C176.8 44.2457 175.8 44.9393 175.03 45.8555C174.296 46.6954 173.642 47.6396 172.716 48.2864C172.237 48.6104 171.695 48.8295 171.126 48.9294C170.556 49.0293 169.972 49.0077 169.412 48.866C168.006 48.5493 166.798 47.7463 165.643 46.92C164.362 46.0025 163.045 45.0292 161.454 44.7589C161.262 44.7261 161.324 44.429 161.516 44.4617C164.284 44.932 166.103 47.3585 168.658 48.3227C169.85 48.7726 171.185 48.866 172.311 48.1876C173.296 47.5943 173.971 46.6212 174.708 45.7644C175.445 44.8596 176.393 44.149 177.468 43.6949C178.615 43.265 179.827 43.0335 181.052 43.0102C183.809 42.9138 186.564 43.2516 189.216 44.011C192.247 44.8609 195.111 46.2232 197.683 48.0388C197.842 48.1512 197.638 48.3759 197.48 48.2642Z" fill="white"/>
<path d="M183.381 43.1716C183.501 42.2137 183.957 41.3296 184.669 40.6771C185.38 40.0246 186.3 39.6462 187.265 39.6095C187.46 39.6027 187.48 39.9057 187.284 39.9125C186.386 39.945 185.529 40.2976 184.867 40.9066C184.206 41.5155 183.785 42.3408 183.678 43.2334C183.655 43.4273 183.358 43.3644 183.381 43.1716Z" fill="white"/>
<path d="M175.347 45.3804C176.544 46.9488 178.289 48.0081 180.233 48.3472C180.425 48.3806 180.363 48.6778 180.171 48.6444C178.149 48.2877 176.335 47.1817 175.093 45.5469C174.974 45.391 175.229 45.2254 175.347 45.3804Z" fill="white"/>
<path d="M191.994 45.1731C191.87 45.534 191.838 45.92 191.901 46.2964C191.963 46.6727 192.118 47.0277 192.352 47.3293C192.472 47.4837 192.217 47.6491 192.098 47.4958C191.841 47.1613 191.671 46.7691 191.601 46.3534C191.531 45.9378 191.564 45.5113 191.696 45.1113C191.706 45.0725 191.73 45.0388 191.763 45.0169C191.796 44.995 191.837 44.9867 191.876 44.9936C191.915 45.0019 191.95 45.0255 191.972 45.0591C191.994 45.0927 192.002 45.1337 191.994 45.1731Z" fill="white"/>
<path d="M171.857 33.9285H171.257V17.5053C171.257 16.257 171.012 15.021 170.534 13.8678C170.056 12.7145 169.356 11.6667 168.473 10.784C167.591 9.90139 166.543 9.20124 165.39 8.72355C164.236 8.24586 163 8 161.752 8H126.957C125.709 8 124.473 8.24586 123.32 8.72354C122.167 9.20122 121.119 9.90137 120.236 10.784C119.353 11.6667 118.653 12.7145 118.176 13.8677C117.698 15.021 117.452 16.257 117.452 17.5053V107.604C117.452 110.125 118.454 112.543 120.236 114.325C122.019 116.108 124.436 117.109 126.957 117.109H161.752C164.273 117.109 166.691 116.108 168.473 114.325C170.256 112.543 171.257 110.125 171.257 107.604V45.6188H171.857V33.9285Z" fill="#3F3D56"/>
<path d="M162.136 10.4727H157.594C157.803 10.9847 157.882 11.5403 157.826 12.0905C157.769 12.6406 157.579 13.1685 157.27 13.6275C156.962 14.0865 156.545 14.4626 156.057 14.7226C155.569 14.9827 155.024 15.1188 154.471 15.1188H134.538C133.985 15.1188 133.44 14.9827 132.952 14.7226C132.464 14.4626 132.048 14.0865 131.739 13.6275C131.431 13.1685 131.24 12.6406 131.183 12.0905C131.127 11.5403 131.207 10.9847 131.415 10.4727H127.173C125.291 10.4727 123.485 11.2205 122.154 12.5517C120.823 13.883 120.075 15.6885 120.075 17.5711V107.538C120.075 108.47 120.258 109.393 120.615 110.254C120.972 111.115 121.495 111.898 122.154 112.557C122.813 113.216 123.596 113.739 124.457 114.096C125.318 114.453 126.241 114.636 127.173 114.636H162.136C163.068 114.636 163.991 114.453 164.852 114.096C165.713 113.739 166.496 113.216 167.155 112.557C167.814 111.898 168.337 111.115 168.694 110.254C169.05 109.393 169.234 108.47 169.234 107.538V17.5711C169.234 15.6885 168.486 13.883 167.155 12.5517C165.824 11.2205 164.018 10.4727 162.136 10.4727Z" fill="white"/>
<path d="M145.326 85.736C142.752 85.7384 140.202 85.2331 137.823 84.249C135.444 83.2648 133.282 81.8212 131.462 80.0007C129.641 78.1802 128.198 76.0186 127.213 73.6395C126.229 71.2605 125.724 68.7107 125.726 66.1361C125.723 62.5209 126.72 58.9753 128.609 55.8925C130.497 52.8098 133.203 50.3103 136.425 48.6714C138.761 47.483 141.311 46.7741 143.925 46.5865C146.539 46.3989 149.164 46.7364 151.646 47.579C156.041 49.0766 159.761 52.0857 162.145 56.0701C164.528 60.0546 165.42 64.7558 164.662 69.3365C163.903 73.9171 161.543 78.0797 158.002 81.083C154.461 84.0863 149.969 85.7352 145.326 85.736ZM145.326 47.3048C142.353 47.296 139.421 47.9993 136.775 49.3559C134.462 50.5343 132.418 52.178 130.77 54.1839C129.123 56.1898 127.908 58.5147 127.202 61.0125C126.496 63.5103 126.314 66.127 126.667 68.6986C127.02 71.2701 127.901 73.7408 129.255 75.9556C130.608 78.1705 132.405 80.0816 134.532 81.569C136.66 83.0563 139.071 84.0879 141.616 84.5989C144.161 85.1099 146.784 85.0892 149.321 84.5383C151.857 83.9873 154.252 82.9179 156.356 81.3973C157.373 80.6634 158.314 79.829 159.163 78.9065C161.648 76.2178 163.295 72.8628 163.903 69.2524C164.51 65.642 164.051 61.9328 162.583 58.579C161.114 55.2252 158.7 52.3725 155.635 50.37C152.57 48.3676 148.987 47.3023 145.326 47.3048Z" fill="#F0F0F0"/>
<path d="M102.856 48.7411C103.394 48.8085 103.911 48.9931 104.37 49.2818C104.829 49.5706 105.219 49.9564 105.512 50.4122C105.806 50.868 105.996 51.3826 106.069 51.9199C106.143 52.4571 106.097 53.0038 105.936 53.5216L112.449 58.946L110.117 63.7074L101.029 55.9179C100.177 55.59 99.4746 54.9609 99.0555 54.1499C98.6364 53.339 98.5293 52.4024 98.7546 51.5178C98.9799 50.6331 99.5218 49.8619 100.278 49.3501C101.034 48.8383 101.951 48.6216 102.856 48.7411Z" fill="#FFB6B6"/>
<path d="M163.676 71.3625C163.545 69.9585 163.005 67.4347 162.547 66.5015C161.139 62.8152 152.039 59.7855 150.817 59.395L150.507 55.949L137.863 54.5885L136.259 58.9953L131.724 60.6965C131.416 60.8113 131.138 60.9928 130.908 61.2281C130.679 61.4633 130.504 61.7463 130.397 62.057L126.328 63.233L122.314 64.3936L108.366 54.5654L107.707 54.9959L103.306 57.868L102.627 58.3112L120.676 74.5958L127.381 73.0227L132.424 71.8365L132.854 73.5838L131.74 79.7226C134.968 82.9526 139.242 84.9265 143.795 85.2904C148.347 85.6543 152.881 84.3843 156.582 81.7082L159.446 79.1666C161.442 77.0079 162.916 74.4194 163.753 71.6007L163.676 71.3625Z" fill="#E67E22"/>
<path d="M148.158 51.77C152.931 50.1897 155.519 45.0393 153.939 40.2662C152.358 35.4932 147.208 32.905 142.435 34.4853C137.662 36.0656 135.074 41.216 136.654 45.989C138.234 50.7621 143.385 53.3503 148.158 51.77Z" fill="#FFB6B6"/>
<path d="M138.105 32.7489C138.99 31.485 140.319 30.6003 141.826 30.2707C143.316 29.9642 144.867 30.2487 146.152 31.0642C147.549 30.5015 149.055 30.1282 150.535 30.318C152.014 30.5078 153.465 31.3343 154.149 32.6959C154.293 33.0487 154.468 33.388 154.671 33.7102C155.275 34.515 156.396 34.6194 157.386 34.658C156.885 34.9499 156.385 35.2419 155.884 35.5338C156.383 35.7662 156.882 35.9987 157.381 36.2312C156.702 36.4904 156.023 36.7497 155.344 37.0089C156.924 38.3981 157.306 40.8705 156.708 42.9434C156.141 44.9059 154.842 46.558 153.392 47.9724C153.109 46.917 153.42 45.7728 153.627 44.6802C153.846 43.5257 153.881 42.1757 153.073 41.3607C152.528 40.8108 151.728 40.6447 150.974 40.5113C147.169 39.8385 143.33 39.3826 139.473 39.1458C138.957 39.0745 138.432 39.1282 137.941 39.3023C137.002 39.7193 136.625 40.8646 136.353 41.88C136.223 40.0976 136.327 38.3058 136.663 36.5505C136.92 35.207 137.325 33.8623 138.105 32.7489Z" fill="#2F2E41"/>
<path d="M149.938 94.9697H139.177C138.804 94.9697 138.445 94.8212 138.181 94.5569C137.917 94.2927 137.768 93.9342 137.768 93.5605C137.768 93.1868 137.917 92.8284 138.181 92.5641C138.445 92.2998 138.804 92.1514 139.177 92.1514H149.938C150.312 92.1514 150.67 92.2998 150.934 92.5641C151.199 92.8284 151.347 93.1868 151.347 93.5605C151.347 93.9342 151.199 94.2927 150.934 94.5569C150.67 94.8212 150.312 94.9697 149.938 94.9697Z" fill="#E67E22"/>
<path d="M114.628 19.5619H85.0294C84.7567 19.5614 84.4952 19.4528 84.3025 19.2598C84.1098 19.0667 84.0016 18.8051 84.0016 18.5324C84.0016 18.2596 84.1098 17.998 84.3025 17.805C84.4952 17.612 84.7567 17.5034 85.0294 17.5029H114.628C114.901 17.5029 115.163 17.6114 115.356 17.8045C115.549 17.9975 115.657 18.2594 115.657 18.5324C115.657 18.8054 115.549 19.0673 115.356 19.2603C115.163 19.4534 114.901 19.5619 114.628 19.5619Z" fill="#E67E22"/>
<path d="M131.717 26.1369H85.0294C84.7564 26.1369 84.4946 26.0285 84.3015 25.8354C84.1085 25.6424 84 25.3805 84 25.1075C84 24.8345 84.1085 24.5727 84.3015 24.3796C84.4946 24.1866 84.7564 24.0781 85.0294 24.0781H131.717C131.99 24.0781 132.252 24.1866 132.445 24.3796C132.638 24.5727 132.746 24.8345 132.746 25.1075C132.746 25.3805 132.638 25.6424 132.445 25.8354C132.252 26.0285 131.99 26.1369 131.717 26.1369Z" fill="#E67E22"/>
<path d="M122.745 32.3313H85.0294C84.7564 32.3313 84.4946 32.2228 84.3015 32.0298C84.1085 31.8367 84 31.5749 84 31.3019C84 31.0288 84.1085 30.767 84.3015 30.574C84.4946 30.3809 84.7564 30.2725 85.0294 30.2725H122.745C123.018 30.2725 123.28 30.3809 123.473 30.574C123.666 30.767 123.774 31.0288 123.774 31.3019C123.774 31.5749 123.666 31.8367 123.473 32.0298C123.28 32.2228 123.018 32.3313 122.745 32.3313Z" fill="#CACACA"/>
<path d="M106.297 38.5022H85.0294C84.7564 38.5022 84.4946 38.3937 84.3015 38.2007C84.1085 38.0076 84 37.7458 84 37.4728C84 37.1997 84.1085 36.9379 84.3015 36.7449C84.4946 36.5518 84.7564 36.4434 85.0294 36.4434H106.297C106.57 36.4434 106.832 36.5518 107.025 36.7449C107.218 36.9379 107.326 37.1997 107.326 37.4728C107.326 37.7458 107.218 38.0076 107.025 38.2007C106.832 38.3937 106.57 38.5022 106.297 38.5022Z" fill="#CACACA"/>
<path d="M118.046 44.674H85.0294C84.7567 44.6736 84.4953 44.565 84.3026 44.372C84.1099 44.179 84.0016 43.9174 84.0016 43.6446C84.0016 43.3719 84.1099 43.1103 84.3026 42.9173C84.4953 42.7243 84.7567 42.6157 85.0294 42.6152H118.046C118.318 42.6157 118.58 42.7243 118.773 42.9173C118.965 43.1103 119.074 43.3719 119.074 43.6446C119.074 43.9174 118.965 44.179 118.773 44.372C118.58 44.565 118.318 44.6736 118.046 44.674Z" fill="#CACACA"/>
<path d="M211.095 145.386L208.442 145.386L207.18 135.153L211.095 135.154L211.095 145.386Z" fill="#9F616A"/>
<path d="M212.139 149.057L202.01 149.057V148.929C202.011 147.883 202.426 146.88 203.165 146.141C203.904 145.402 204.907 144.987 205.953 144.987H205.953L207.803 143.583L211.255 144.987L212.139 144.987L212.139 149.057Z" fill="#2F2E41"/>
<path d="M209.549 97.2955L208.379 83.03L207.46 77.6756L212.606 76.5391L214.314 83.8696L212.826 97.6913C213.126 98.0591 213.309 98.5082 213.352 98.9809C213.395 99.4536 213.296 99.9284 213.067 100.344C212.838 100.76 212.49 101.098 212.068 101.314C211.645 101.531 211.168 101.616 210.696 101.559C210.225 101.502 209.782 101.306 209.423 100.995C209.064 100.684 208.807 100.273 208.683 99.8146C208.56 99.3563 208.577 98.8715 208.731 98.4226C208.885 97.9737 209.17 97.5812 209.549 97.2955Z" fill="#9F616A"/>
<path d="M197.003 145.386L194.351 145.386L193.089 135.153L197.004 135.154L197.003 145.386Z" fill="#9F616A"/>
<path d="M192.758 100.529L191.582 102.563C191.582 102.563 190.29 102.916 190.712 107.129C191.134 111.341 191.152 136.298 193.197 139.369L193.566 142.006L197.427 142.375L197.524 140.035L202.127 107.526C202.127 107.526 204.838 139.439 207.08 140.22L207.89 142.879L211.428 142.881L211.219 139.747L211.447 100.199L192.758 100.529Z" fill="#2F2E41"/>
<path d="M191.465 102.409L191.384 102.388C193.811 93.3086 193.111 81.552 191.397 68.9277L191.397 68.8754L197.593 63.2002H202.973L208.307 66.6423C211.755 68.3663 212.539 72.0174 212.546 72.0541L212.552 72.0801L210.439 79.4548L212.031 100.782L212.032 100.807L212.023 100.83C211.508 102.136 210.128 101.95 208.53 101.735C206.934 101.52 201.054 103.487 199.252 103.487C195.728 103.487 191.717 102.473 191.465 102.409Z" fill="#E67E22"/>
<path d="M207.19 69.5172L209.501 68.5117L212.547 72.2454L215.015 84.2098L206.56 82.9287L207.19 69.5172Z" fill="#E67E22"/>
<path d="M171.639 91.5789L182.205 81.9236L185.877 77.9199L189.925 81.2944L185.173 87.131L173.331 94.4128C173.224 94.8752 172.981 95.295 172.633 95.6182C172.286 95.9415 171.849 96.1534 171.38 96.2268C170.911 96.3002 170.431 96.2317 170.001 96.0301C169.572 95.8286 169.212 95.5031 168.969 95.0955C168.725 94.688 168.609 94.217 168.636 93.7431C168.662 93.2692 168.829 92.8139 169.117 92.4359C169.404 92.0578 169.797 91.7742 170.247 91.6215C170.696 91.4688 171.181 91.454 171.639 91.5789Z" fill="#9F616A"/>
<path d="M181.975 82.0289L184.901 78.2285C184.926 78.174 187.354 72.7482 189.458 70.3907C191.617 67.9724 193.317 69.2091 193.334 69.2224L193.376 69.2543L193.494 78.1849L185.39 87.8675L181.975 82.0289Z" fill="#E67E22"/>
<path d="M204.618 57.8551C205.054 55.1663 203.228 52.6329 200.539 52.1966C197.851 51.7602 195.317 53.5862 194.881 56.275C194.445 58.9638 196.271 61.4973 198.959 61.9336C201.648 62.3699 204.182 60.5439 204.618 57.8551Z" fill="#9F616A"/>
<path d="M195.24 56.3327C195.24 56.3327 195.201 54.5988 194.982 53.8316C194.762 53.0643 194.324 52.4067 194.543 52.4067C194.762 52.4067 194.872 51.8587 194.872 51.8587C194.872 51.8587 195.091 51.7491 195.201 51.8587C195.31 51.9683 195.42 51.0914 195.42 51.0914C195.42 51.0914 195.53 50.7626 195.639 50.9818C195.749 51.201 195.749 51.0914 195.858 50.7626C195.968 50.4338 196.516 50.2146 196.516 50.2146C196.516 50.2146 198.599 50.3242 198.927 49.8858C199.256 49.4474 202.983 49.7762 203.75 50.3242C204.517 50.8722 207.915 52.8451 207.367 54.4892C206.819 56.1332 205.241 59.9187 204.846 60.2982C204.221 60.8984 203.788 61.1147 200.83 61.7033C200.251 61.8185 197.296 59.9288 197.296 59.6C197.296 59.2712 197.653 58.2285 197.08 58.0853C196.214 57.8689 196.117 58.9632 195.898 58.6344C195.679 58.3056 195.24 56.3327 195.24 56.3327Z" fill="#2F2E41"/>
<path d="M198.047 149.057L187.919 149.057V148.929C187.919 147.883 188.334 146.88 189.074 146.141C189.813 145.402 190.816 144.987 191.861 144.987H191.861L193.711 143.583L197.163 144.987L198.047 144.987L198.047 149.057Z" fill="#2F2E41"/>
<path d="M250.695 149.251H84.8527C84.7718 149.251 84.6942 149.219 84.637 149.161C84.5798 149.104 84.5476 149.027 84.5476 148.946C84.5476 148.865 84.5798 148.787 84.637 148.73C84.6942 148.673 84.7718 148.641 84.8527 148.641H250.695C250.776 148.641 250.853 148.673 250.911 148.73C250.968 148.787 251 148.865 251 148.946C251 149.027 250.968 149.104 250.911 149.161C250.853 149.219 250.776 149.251 250.695 149.251Z" fill="#CACACA"/>
</g>
<defs>
<clipPath id="clip0_1649_2306">
<rect width="167" height="141.25" fill="white" transform="translate(84 8)"/>
</clipPath>
</defs>
</svg>
