<svg width="410" height="247" viewBox="0 0 410 247" fill="none" xmlns="http://www.w3.org/2000/svg">
<rect x="1" y="40.5" width="293" height="206" rx="15.5" stroke="#D5D5D5"/>
<g clip-path="url(#clip0_1549_2381)">
<path d="M38.0644 206.082C39.0322 198.272 43.8551 190.577 51.2769 188.035C48.35 196.074 48.3506 204.892 51.2787 212.93C52.4192 216.026 54.0089 219.35 52.9361 222.47C52.2687 224.412 50.6358 225.897 48.8107 226.826C46.9854 227.755 44.9597 228.197 42.9594 228.631L42.5657 228.958C39.3902 221.762 37.0966 213.891 38.0644 206.082Z" fill="#F0F0F0"/>
<path d="M51.3506 188.182C47.0285 193.043 44.3422 199.146 43.6732 205.625C43.5045 207.017 43.5556 208.428 43.8245 209.804C44.1296 211.136 44.7847 212.362 45.7216 213.355C46.5766 214.297 47.5601 215.162 48.1719 216.297C48.4764 216.883 48.6542 217.527 48.6935 218.186C48.7329 218.845 48.6328 219.506 48.4 220.124C47.8599 221.678 46.7953 222.946 45.7112 224.149C44.5076 225.484 43.2364 226.853 42.7247 228.623C42.6627 228.838 42.3346 228.729 42.3965 228.515C43.2867 225.434 46.2667 223.684 47.6879 220.909C48.3511 219.614 48.6294 218.111 48.0077 216.744C47.4641 215.549 46.4507 214.656 45.5767 213.709C44.6486 212.754 43.9675 211.586 43.5929 210.307C43.255 208.949 43.1499 207.543 43.2821 206.149C43.5298 203.007 44.2682 199.923 45.4703 197.012C46.8239 193.681 48.7354 190.606 51.1219 187.922C51.2697 187.756 51.4974 188.017 51.3506 188.182Z" fill="white"/>
<path d="M43.7662 203.527C42.6982 203.266 41.7571 202.634 41.1111 201.741C40.465 200.849 40.156 199.755 40.2393 198.656C40.2569 198.433 40.6022 198.45 40.5846 198.673C40.5052 199.697 40.7931 200.716 41.3964 201.545C41.9997 202.375 42.8786 202.961 43.8746 203.197C44.091 203.249 43.9814 203.578 43.7662 203.527Z" fill="white"/>
<path d="M45.2253 212.934C47.1542 211.778 48.5782 209.935 49.2133 207.772C49.276 207.558 49.6042 207.667 49.5415 207.881C48.8764 210.131 47.3907 212.046 45.3807 213.244C45.1891 213.358 45.0347 213.048 45.2253 212.934Z" fill="white"/>
<path d="M47.1446 194.01C47.5369 194.197 47.9694 194.283 48.4032 194.261C48.8371 194.239 49.2586 194.109 49.63 193.883C49.8202 193.767 49.9744 194.077 49.7855 194.193C49.374 194.441 48.9082 194.584 48.429 194.609C47.9497 194.635 47.4715 194.542 47.0362 194.339C46.9936 194.323 46.9585 194.292 46.9381 194.251C46.9177 194.211 46.9135 194.164 46.9263 194.12C46.9409 194.077 46.972 194.041 47.0128 194.02C47.0537 193.999 47.1011 193.996 47.1446 194.01Z" fill="white"/>
<path d="M73.8997 201.985C73.7831 202.061 73.6664 202.137 73.5496 202.216C71.9866 203.247 70.5096 204.405 69.1333 205.676C69.0253 205.773 68.9174 205.872 68.8124 205.972C65.5291 209.071 62.8476 212.754 60.9043 216.836C60.1325 218.46 59.485 220.142 58.9673 221.865C58.2526 224.245 57.6663 226.883 56.2515 228.829C56.1062 229.034 55.9484 229.23 55.7789 229.415H42.9935C42.9644 229.4 42.9352 229.388 42.906 229.374L42.3955 229.397C42.416 229.306 42.4393 229.213 42.4598 229.122C42.4714 229.069 42.486 229.017 42.4977 228.964C42.5064 228.929 42.5152 228.894 42.521 228.862C42.5239 228.85 42.5269 228.838 42.5297 228.829C42.5355 228.797 42.5444 228.768 42.5502 228.739C42.6786 228.215 42.8108 227.691 42.9469 227.167C42.9469 227.164 42.9469 227.164 42.9497 227.161C43.9971 223.171 45.3855 219.233 47.3253 215.632C47.3837 215.524 47.442 215.413 47.5062 215.305C48.3896 213.686 49.4032 212.143 50.5371 210.691C51.1605 209.898 51.8235 209.136 52.5236 208.41C54.3362 206.538 56.4309 204.963 58.731 203.744C63.3167 201.314 68.6257 200.383 73.5264 201.868C73.6517 201.906 73.7744 201.944 73.8997 201.985Z" fill="#F0F0F0"/>
<path d="M73.871 202.147C67.5043 203.416 61.6979 206.666 57.2765 211.436C56.3066 212.445 55.5012 213.602 54.8902 214.864C54.3346 216.112 54.1221 217.486 54.2749 218.845C54.392 220.114 54.6583 221.399 54.4659 222.675C54.3577 223.327 54.1135 223.948 53.7493 224.498C53.3851 225.049 52.9091 225.515 52.3525 225.868C50.9884 226.783 49.3781 227.152 47.7909 227.457C46.0285 227.796 44.1926 228.121 42.7218 229.226C42.5436 229.359 42.347 229.074 42.525 228.94C45.084 227.018 48.5133 227.422 51.3128 226.065C52.6191 225.432 53.7431 224.4 54.0667 222.933C54.3497 221.65 54.0763 220.325 53.9466 219.04C53.7782 217.717 53.9352 216.373 54.4038 215.125C54.9488 213.837 55.7084 212.651 56.6499 211.618C58.7328 209.259 61.1722 207.243 63.879 205.644C66.9582 203.802 70.3286 202.503 73.8444 201.802C74.062 201.758 74.0872 202.104 73.871 202.147Z" fill="white"/>
<path d="M58.6101 209.816C57.9135 208.963 57.5417 207.889 57.5611 206.786C57.5806 205.683 57.99 204.623 58.7163 203.796C58.8638 203.629 59.1293 203.851 58.9816 204.018C58.3039 204.788 57.9226 205.775 57.9066 206.802C57.8905 207.829 58.2408 208.828 58.8942 209.618C59.036 209.79 58.7511 209.987 58.6101 209.816Z" fill="white"/>
<path d="M54.1311 218.209C56.3647 218.452 58.6074 217.841 60.4119 216.497C60.5906 216.364 60.7872 216.65 60.6087 216.783C58.7283 218.177 56.3931 218.808 54.0693 218.55C53.8478 218.526 53.9108 218.185 54.1311 218.209Z" fill="white"/>
<path d="M67.0171 204.258C67.2181 204.644 67.5116 204.975 67.8712 205.219C68.2309 205.464 68.6454 205.615 69.0775 205.659C69.2992 205.68 69.236 206.022 69.0158 206C68.5386 205.949 68.081 205.782 67.683 205.513C67.2851 205.243 66.9589 204.88 66.733 204.455C66.7083 204.417 66.6991 204.371 66.7072 204.326C66.7153 204.281 66.7401 204.241 66.7766 204.214C66.8144 204.188 66.8608 204.178 66.9058 204.186C66.9509 204.195 66.9908 204.22 67.0171 204.258Z" fill="white"/>
<path d="M261.398 147.153H220.268V146.568H260.815V119.343H261.398V147.153Z" fill="#E4E4E4"/>
<path d="M128.089 158.57H127.505V130.76H168.636V131.345H128.089V158.57Z" fill="#E4E4E4"/>
<path d="M188.18 96.5089H147.049V68.6982H147.633V95.9234H188.18V96.5089Z" fill="#E4E4E4"/>
<path d="M138.865 57C138.644 57.0004 138.433 57.0887 138.277 57.2454C138.121 57.4021 138.034 57.6144 138.034 57.8358C138.034 58.0572 138.121 58.2696 138.277 58.4263C138.433 58.583 138.644 58.6713 138.865 58.6717H155.76C155.981 58.6713 156.192 58.583 156.348 58.4263C156.504 58.2696 156.592 58.0572 156.592 57.8358C156.592 57.6144 156.504 57.4021 156.348 57.2454C156.192 57.0887 155.981 57.0004 155.76 57H138.865Z" fill="#3F3D56"/>
<path d="M138.865 61.9248C138.644 61.9248 138.432 62.0129 138.276 62.1696C138.12 62.3264 138.032 62.539 138.032 62.7606C138.032 62.9823 138.12 63.1949 138.276 63.3517C138.432 63.5084 138.644 63.5965 138.865 63.5965H155.76C155.981 63.5961 156.192 63.5078 156.348 63.3511C156.504 63.1944 156.592 62.982 156.592 62.7606C156.592 62.5392 156.504 62.3269 156.348 62.1702C156.192 62.0135 155.981 61.9252 155.76 61.9248H138.865Z" fill="#3F3D56"/>
<path d="M269.667 115.599C269.888 115.599 270.099 115.511 270.255 115.354C270.411 115.197 270.498 114.985 270.498 114.764C270.498 114.542 270.411 114.33 270.255 114.173C270.099 114.016 269.888 113.928 269.667 113.928H252.77C252.661 113.928 252.552 113.949 252.451 113.991C252.35 114.033 252.258 114.094 252.18 114.172C252.103 114.25 252.041 114.342 251.999 114.443C251.957 114.545 251.936 114.654 251.936 114.764C251.936 114.873 251.957 114.982 251.999 115.084C252.041 115.185 252.103 115.278 252.18 115.355C252.258 115.433 252.35 115.494 252.451 115.536C252.552 115.578 252.661 115.6 252.77 115.599H269.667Z" fill="#2F2E41"/>
<path d="M269.667 110.675C269.888 110.674 270.099 110.586 270.255 110.429C270.411 110.273 270.498 110.06 270.498 109.839C270.498 109.617 270.411 109.405 270.255 109.248C270.099 109.092 269.888 109.003 269.667 109.003H252.77C252.661 109.003 252.552 109.024 252.451 109.066C252.35 109.108 252.258 109.17 252.18 109.247C252.103 109.325 252.041 109.417 251.999 109.519C251.957 109.62 251.936 109.729 251.936 109.839C251.936 109.949 251.957 110.057 251.999 110.159C252.041 110.26 252.103 110.353 252.18 110.43C252.258 110.508 252.35 110.57 252.451 110.611C252.552 110.653 252.661 110.675 252.77 110.675H269.667Z" fill="#2F2E41"/>
<path d="M198.098 155.35C191.925 155.35 185.89 153.513 180.757 150.071C175.624 146.629 171.624 141.737 169.261 136.014C166.899 130.29 166.281 123.992 167.485 117.916C168.69 111.84 171.662 106.258 176.027 101.878C180.393 97.4969 185.954 94.5136 192.009 93.305C198.063 92.0964 204.339 92.7167 210.042 95.0875C215.746 97.4583 220.62 101.473 224.05 106.624C227.48 111.775 229.31 117.832 229.31 124.027C229.301 132.331 226.01 140.293 220.158 146.165C214.307 152.038 206.373 155.341 198.098 155.35ZM198.098 93.2886C192.04 93.2886 186.118 95.0914 181.081 98.4689C176.044 101.846 172.119 106.647 169.8 112.264C167.482 117.88 166.876 124.061 168.057 130.023C169.239 135.986 172.156 141.463 176.44 145.762C180.723 150.061 186.181 152.988 192.122 154.174C198.064 155.36 204.222 154.752 209.819 152.425C215.416 150.099 220.199 146.159 223.565 141.104C226.931 136.049 228.727 130.106 228.727 124.027C228.718 115.877 225.488 108.064 219.746 102.302C214.004 96.5393 206.218 93.2978 198.098 93.2886Z" fill="#E4E4E4"/>
<path d="M185.555 100.022C187.488 100.022 189.055 98.4492 189.055 96.509C189.055 94.5689 187.488 92.9961 185.555 92.9961C183.621 92.9961 182.054 94.5689 182.054 96.509C182.054 98.4492 183.621 100.022 185.555 100.022Z" fill="#E67E22"/>
<path d="M167.761 134.858C169.694 134.858 171.261 133.285 171.261 131.345C171.261 129.405 169.694 127.832 167.761 127.832C165.827 127.832 164.26 129.405 164.26 131.345C164.26 133.285 165.827 134.858 167.761 134.858Z" fill="#E67E22"/>
<path d="M219.101 150.666C221.034 150.666 222.601 149.094 222.601 147.154C222.601 145.213 221.034 143.641 219.101 143.641C217.167 143.641 215.6 145.213 215.6 147.154C215.6 149.094 217.167 150.666 219.101 150.666Z" fill="#E67E22"/>
<path d="M119.236 162.313C119.015 162.313 118.803 162.402 118.647 162.558C118.491 162.715 118.403 162.928 118.403 163.149C118.403 163.371 118.491 163.584 118.647 163.74C118.803 163.897 119.015 163.985 119.236 163.985H136.133C136.354 163.985 136.565 163.896 136.721 163.74C136.877 163.583 136.964 163.371 136.964 163.149C136.964 162.928 136.877 162.716 136.721 162.559C136.565 162.402 136.354 162.314 136.133 162.313H119.236Z" fill="#2F2E41"/>
<path d="M119.236 167.238C119.127 167.238 119.018 167.26 118.917 167.301C118.816 167.343 118.724 167.405 118.646 167.483C118.569 167.56 118.507 167.652 118.465 167.754C118.423 167.855 118.402 167.964 118.402 168.074C118.402 168.184 118.423 168.293 118.465 168.394C118.507 168.496 118.569 168.588 118.646 168.666C118.724 168.743 118.816 168.805 118.917 168.847C119.018 168.889 119.127 168.91 119.236 168.91H136.133C136.354 168.91 136.565 168.821 136.721 168.665C136.877 168.508 136.964 168.296 136.964 168.074C136.964 167.853 136.877 167.64 136.721 167.484C136.565 167.327 136.354 167.239 136.133 167.238H119.236Z" fill="#2F2E41"/>
<path d="M77.5586 229.834H73.3129C72.779 229.833 72.2672 229.62 71.8897 229.241C71.5122 228.863 71.2999 228.349 71.2993 227.813V192.301C71.2999 191.765 71.5122 191.252 71.8897 190.873C72.2672 190.494 72.779 190.281 73.3129 190.28H77.5586C78.0925 190.281 78.6043 190.494 78.9818 190.873C79.3593 191.252 79.5716 191.765 79.5722 192.301V227.813C79.5716 228.349 79.3593 228.863 78.9818 229.241C78.6043 229.62 78.0925 229.833 77.5586 229.834Z" fill="#E67E22"/>
<path d="M88.8327 229.834H84.5869C84.053 229.833 83.5412 229.62 83.1637 229.241C82.7862 228.863 82.5739 228.349 82.5733 227.813V192.301C82.5739 191.765 82.7862 191.252 83.1637 190.873C83.5412 190.494 84.053 190.281 84.5869 190.28H88.8327C89.3666 190.281 89.8784 190.494 90.2559 190.873C90.6334 191.252 90.8457 191.765 90.8463 192.301V227.813C90.8457 228.349 90.6334 228.863 90.2559 229.241C89.8784 229.62 89.3666 229.833 88.8327 229.834Z" fill="#E67E22"/>
<path d="M81.4873 153.364C89.5897 153.364 96.1579 146.772 96.1579 138.641C96.1579 130.51 89.5897 123.918 81.4873 123.918C73.3849 123.918 66.8167 130.51 66.8167 138.641C66.8167 146.772 73.3849 153.364 81.4873 153.364Z" fill="#E67E22"/>
<path d="M86.4671 202.872H75.913C73.7198 202.881 71.5633 202.307 69.6619 201.21C67.7604 200.114 66.1814 198.532 65.0848 196.626C63.9882 194.72 63.4129 192.557 63.417 190.356C63.4211 188.154 64.0046 185.994 65.1084 184.092L79.868 158.436C80.0321 158.151 80.2682 157.914 80.5524 157.749C80.8366 157.585 81.1591 157.498 81.4873 157.498C81.8155 157.498 82.138 157.585 82.4222 157.749C82.7064 157.914 82.9425 158.151 83.1066 158.436L97.569 183.575C98.6941 185.531 99.2864 187.749 99.2864 190.007C99.2864 192.266 98.694 194.484 97.5689 196.44C96.4438 198.396 94.8255 200.02 92.8767 201.149C90.9279 202.278 88.7173 202.872 86.4671 202.872Z" fill="#2F2E41"/>
<path d="M84.95 144.821C85.901 144.794 87.0845 144.761 87.9963 144.093C88.2678 143.886 88.4909 143.621 88.6499 143.318C88.8089 143.016 88.9 142.682 88.9169 142.34C88.9333 142.097 88.8936 141.853 88.8008 141.628C88.708 141.403 88.5645 141.203 88.3817 141.043C87.9055 140.639 87.2101 140.544 86.4607 140.765L87.2371 135.071L86.6671 134.992L85.7543 141.687L86.2303 141.468C86.7821 141.214 87.5396 141.084 88.0103 141.483C88.1259 141.588 88.216 141.718 88.2735 141.863C88.331 142.008 88.3544 142.164 88.3419 142.319C88.328 142.574 88.2596 142.822 88.1414 143.048C88.0232 143.273 87.8579 143.471 87.6569 143.626C86.9474 144.147 86.004 144.214 84.934 144.244L84.95 144.821Z" fill="#2F2E41"/>
<path d="M93.1545 135.562H90.0559V136.139H93.1545V135.562Z" fill="#2F2E41"/>
<path d="M83.3741 135.562H80.2755V136.139H83.3741V135.562Z" fill="#2F2E41"/>
<path d="M78.0366 199.58C77.9147 199.323 77.8489 199.042 77.8436 198.757L77.1204 172.312C77.0968 171.211 77.5098 170.146 78.2684 169.351C79.0271 168.556 80.0694 168.096 81.166 168.072C82.2626 168.048 83.3238 168.463 84.1162 169.224C84.9085 169.985 85.3672 171.031 85.3913 172.131L86.1144 198.577C86.1255 199.112 85.9244 199.631 85.5552 200.018C85.186 200.405 84.6789 200.629 84.1452 200.641L79.9006 200.734C79.5122 200.742 79.1298 200.637 78.7991 200.433C78.4685 200.228 78.2037 199.932 78.0366 199.58Z" fill="#E67E22"/>
<path d="M80.1261 127.757C81.9086 130.097 84.7382 131.666 87.7288 131.294C90.5767 130.94 92.9262 128.948 93.5156 126.096C93.773 124.748 93.7036 123.357 93.3132 122.041C92.9229 120.726 92.2231 119.523 91.2729 118.536C89.2571 116.408 86.3722 115.263 83.5167 114.871C78.1074 114.127 72.5519 116.04 68.462 119.606C66.408 121.379 64.7686 123.584 63.6602 126.065C62.5925 128.528 62.084 131.198 62.1715 133.882C62.3287 139.187 64.644 144.481 68.6389 147.999C69.1351 148.435 69.6544 148.843 70.1946 149.222C70.6502 149.543 71.0819 148.792 70.6301 148.474C66.5391 145.594 63.9295 140.907 63.2133 135.983C62.8382 133.502 63.0055 130.969 63.7035 128.559C64.4016 126.149 65.6137 123.921 67.2557 122.028C70.5592 118.259 75.403 115.808 80.4198 115.589C85.468 115.368 91.7764 117.63 92.7211 123.269C93.1445 125.797 92.203 128.454 89.8949 129.719C87.4238 131.074 84.3937 130.516 82.27 128.767C81.7501 128.34 81.2807 127.855 80.8713 127.32C80.5384 126.883 79.7886 127.314 80.1261 127.757Z" fill="#2F2E41"/>
<path d="M135.931 230H24.7917C24.7143 230 24.6401 229.969 24.5854 229.914C24.5307 229.859 24.5 229.784 24.5 229.707C24.5 229.629 24.5307 229.555 24.5854 229.5C24.6401 229.445 24.7143 229.414 24.7917 229.414H135.931C136.009 229.414 136.083 229.445 136.138 229.5C136.192 229.555 136.223 229.629 136.223 229.707C136.223 229.784 136.192 229.859 136.138 229.914C136.083 229.969 136.009 230 135.931 230Z" fill="#3F3D56"/>
</g>
<rect x="190" y="0.5" width="219" height="179" rx="15.5" fill="#F2F2F2"/>
<rect x="190" y="0.5" width="219" height="179" rx="15.5" stroke="#D5D5D5"/>
<path d="M214.5 27V80.083" stroke="#008080" stroke-width="2"/>
<path d="M214.5 100.083V153.166" stroke="#008080" stroke-width="2"/>
<path fill-rule="evenodd" clip-rule="evenodd" d="M214.5 173C220.023 173 224.5 168.523 224.5 163C224.5 157.477 220.023 153 214.5 153C208.977 153 204.5 157.477 204.5 163C204.5 168.523 208.977 173 214.5 173ZM213.855 166.726L220.188 160.726L218.813 159.274L213.167 164.622L210.688 162.274L209.313 163.726L212.479 166.726L213.167 167.377L213.855 166.726Z" fill="#008080"/>
<g clip-path="url(#clip1_1549_2381)">
<rect x="234.5" y="153" width="151" height="16" rx="8" fill="white"/>
</g>
<path fill-rule="evenodd" clip-rule="evenodd" d="M214.5 100C220.023 100 224.5 95.523 224.5 90C224.5 84.477 220.023 80 214.5 80C208.977 80 204.5 84.477 204.5 90C204.5 95.523 208.977 100 214.5 100ZM213.855 93.726L220.188 87.726L218.813 86.274L213.167 91.622L210.688 89.274L209.313 90.726L212.479 93.726L213.167 94.377L213.855 93.726Z" fill="#008080"/>
<g clip-path="url(#clip2_1549_2381)">
<rect x="234.5" y="82" width="151" height="16" rx="8" fill="white"/>
</g>
<path fill-rule="evenodd" clip-rule="evenodd" d="M214.5 27C220.023 27 224.5 22.523 224.5 17C224.5 11.477 220.023 7 214.5 7C208.977 7 204.5 11.477 204.5 17C204.5 22.523 208.977 27 214.5 27ZM213.855 20.726L220.188 14.726L218.813 13.274L213.167 18.622L210.688 16.274L209.313 17.726L212.479 20.726L213.167 21.377L213.855 20.726Z" fill="#008080"/>
<g clip-path="url(#clip3_1549_2381)">
<rect x="234.5" y="9" width="151" height="16" rx="8" fill="white"/>
</g>
<defs>
<clipPath id="clip0_1549_2381">
<rect width="246" height="173" fill="white" transform="translate(24.5 57)"/>
</clipPath>
<clipPath id="clip1_1549_2381">
<rect x="234.5" y="153" width="151" height="16" rx="8" fill="white"/>
</clipPath>
<clipPath id="clip2_1549_2381">
<rect x="234.5" y="82" width="151" height="16" rx="8" fill="white"/>
</clipPath>
<clipPath id="clip3_1549_2381">
<rect x="234.5" y="9" width="151" height="16" rx="8" fill="white"/>
</clipPath>
</defs>
</svg>
