<svg width="336" height="150" viewBox="0 0 336 150" fill="none" xmlns="http://www.w3.org/2000/svg">
<g clip-path="url(#clip0_1649_2145)">
<rect width="336" height="150" rx="8" fill="#CCE6E6"/>
<g clip-path="url(#clip1_1649_2145)">
<path d="M55.9739 139.068C57.155 139.487 58.4232 139.592 59.6562 139.373C60.8892 139.154 62.0454 138.617 63.0136 137.815C65.4793 135.725 66.2533 132.281 66.8814 129.092L68.7418 119.659L64.8468 122.369C62.0456 124.317 59.1815 126.328 57.2418 129.15C55.3022 131.972 54.4557 135.824 56.014 138.878" fill="#E6E6E6"/>
<path d="M56.3068 150.487C55.9126 147.587 55.5072 144.649 55.7837 141.717C56.0294 139.113 56.8155 136.57 58.4168 134.485C59.2666 133.38 60.3008 132.433 61.4727 131.687C61.7784 131.493 62.0594 131.982 61.7553 132.176C59.7277 133.47 58.1593 135.382 57.2765 137.634C56.3014 140.14 56.1448 142.871 56.3142 145.532C56.4159 147.141 56.6311 148.739 56.8483 150.337C56.8657 150.409 56.8552 150.485 56.8188 150.55C56.7825 150.615 56.723 150.663 56.6526 150.685C56.581 150.704 56.5046 150.695 56.4401 150.658C56.3756 150.62 56.3282 150.559 56.3081 150.487L56.3068 150.487Z" fill="#F2F2F2"/>
<path d="M134.421 87.9907C134.135 88.128 133.823 88.2021 133.507 88.208L104.123 89.0227C102.9 89.0495 101.716 88.5845 100.833 87.73C99.9491 86.8754 99.4378 85.7013 99.4112 84.4659C99.3846 83.2305 99.8449 82.035 100.691 81.1425C101.537 80.25 102.699 79.7334 103.922 79.7066L133.306 78.8921C133.902 78.8796 134.477 79.1062 134.907 79.522C135.337 79.9378 135.586 80.509 135.6 81.1101L135.703 85.8912C135.712 86.3286 135.596 86.7594 135.368 87.1318C135.141 87.5042 134.812 87.8024 134.421 87.9907Z" fill="#E67E22"/>
<path d="M96.7181 150.548H91.9838C91.3885 150.548 90.8178 150.308 90.3969 149.883C89.9759 149.458 89.7392 148.882 89.7385 148.28V108.422C89.7392 107.821 89.9759 107.245 90.3969 106.819C90.8178 106.394 91.3885 106.155 91.9838 106.154H96.7181C97.3134 106.155 97.8841 106.394 98.3051 106.819C98.726 107.245 98.9628 107.821 98.9635 108.422V148.28C98.9628 148.882 98.726 149.458 98.3051 149.883C97.8841 150.308 97.3134 150.548 96.7181 150.548Z" fill="#E67E22"/>
<path d="M109.29 150.548H104.555C103.96 150.548 103.389 150.308 102.968 149.883C102.547 149.458 102.311 148.882 102.31 148.28V108.422C102.311 107.821 102.547 107.245 102.968 106.819C103.389 106.394 103.96 106.155 104.555 106.154H109.29C109.885 106.155 110.456 106.394 110.876 106.819C111.297 107.245 111.534 107.821 111.535 108.422V148.28C111.534 148.882 111.297 149.458 110.876 149.883C110.456 150.308 109.885 150.548 109.29 150.548Z" fill="#E67E22"/>
<path d="M101.099 64.7199C110.134 64.7199 117.458 57.3217 117.458 48.1954C117.458 39.0692 110.134 31.6709 101.099 31.6709C92.0642 31.6709 84.7401 39.0692 84.7401 48.1954C84.7401 57.3217 92.0642 64.7199 101.099 64.7199Z" fill="#E67E22"/>
<path d="M106.652 120.288H94.8832C92.4375 120.298 90.0329 119.654 87.9126 118.423C85.7924 117.192 84.0317 115.417 82.8089 113.277C81.5861 111.138 80.9445 108.71 80.9492 106.24C80.9538 103.769 81.6044 101.344 82.8352 99.2092L99.2933 70.4144C99.4763 70.0942 99.7395 69.8283 100.056 69.6435C100.373 69.4586 100.733 69.3613 101.099 69.3613C101.465 69.3613 101.824 69.4586 102.141 69.6435C102.458 69.8283 102.722 70.0942 102.905 70.4144L119.031 98.6294C120.286 100.824 120.946 103.314 120.946 105.849C120.946 108.384 120.286 110.874 119.031 113.069C117.776 115.264 115.972 117.086 113.799 118.354C111.626 119.621 109.161 120.288 106.652 120.288Z" fill="#2F2E41"/>
<path d="M104.96 55.1329C106.02 55.1032 107.34 55.066 108.357 54.3158C108.66 54.0832 108.908 53.7866 109.086 53.4467C109.263 53.1068 109.365 52.7319 109.383 52.3482C109.402 52.0755 109.357 51.8021 109.254 51.5496C109.15 51.297 108.991 51.0721 108.787 50.8923C108.256 50.4391 107.48 50.3327 106.645 50.5808L107.51 44.1895L106.875 44.1016L105.857 51.6153L106.388 51.3693C107.003 51.0842 107.848 50.9392 108.373 51.3872C108.501 51.5043 108.602 51.6499 108.666 51.8126C108.73 51.9753 108.756 52.1508 108.742 52.3254C108.727 52.611 108.65 52.8898 108.519 53.143C108.387 53.3961 108.203 53.6177 107.979 53.7924C107.187 54.3762 106.135 54.4515 104.942 54.4852L104.96 55.1329Z" fill="#2F2E41"/>
<path d="M114.109 44.7402H110.654V45.3883H114.109V44.7402Z" fill="#2F2E41"/>
<path d="M103.203 44.7402H99.7477V45.3883H103.203V44.7402Z" fill="#2F2E41"/>
<path d="M97.2511 116.592C97.1152 116.303 97.0418 115.988 97.036 115.669L96.2295 85.987C96.2029 84.7516 96.6632 83.5561 97.5092 82.6636C98.3552 81.771 99.5176 81.2545 100.741 81.2277C101.964 81.2008 103.147 81.6658 104.031 82.5204C104.914 83.3749 105.426 84.549 105.452 85.7844L106.258 115.466C106.271 116.067 106.047 116.649 105.635 117.083C105.223 117.518 104.658 117.769 104.063 117.783L99.3296 117.887C98.8965 117.896 98.4701 117.779 98.1014 117.549C97.7327 117.319 97.4375 116.987 97.2511 116.592Z" fill="#E67E22"/>
<path d="M99.5811 35.9806C101.569 38.6061 104.724 40.3674 108.059 39.9504C111.234 39.5533 113.854 37.3174 114.511 34.1164C114.798 32.603 114.721 31.0421 114.286 29.5653C113.85 28.0884 113.07 26.7389 112.011 25.6304C109.763 23.2424 106.546 21.9578 103.362 21.5173C97.33 20.6828 91.1352 22.829 86.5747 26.8318C84.2844 28.8218 82.4563 31.297 81.2203 34.0816C80.0298 36.8455 79.4628 39.8424 79.5604 42.855C79.7356 48.8087 82.3173 54.751 86.772 58.6994C87.3252 59.1882 87.9043 59.6463 88.5067 60.0718C89.0147 60.4318 89.4961 59.5895 88.9924 59.2325C84.4305 55.9998 81.5207 50.7399 80.7221 45.2131C80.3038 42.4284 80.4903 39.5851 81.2687 36.8805C82.047 34.1759 83.3986 31.6747 85.2297 29.5505C88.9133 25.3196 94.3145 22.5696 99.9086 22.3232C105.538 22.0753 112.572 24.6138 113.625 30.9433C114.098 33.7803 113.048 36.7623 110.474 38.1826C107.719 39.7033 104.34 39.0775 101.972 37.1135C101.392 36.6346 100.869 36.0898 100.412 35.49C100.041 34.9997 99.2047 35.4833 99.5811 35.9806Z" fill="#2F2E41"/>
<path d="M265.117 -7.16511L126.322 13.0879L135.836 79.6154L274.631 59.3623L265.117 -7.16511Z" fill="#F1F1F1"/>
<path d="M261.964 -0.880882L131.107 18.2139L139.045 73.7198L269.902 54.6251L261.964 -0.880882Z" fill="white"/>
<path d="M264.508 -11.0001L125.713 9.25293L126.565 15.2091L265.36 -5.04394L264.508 -11.0001Z" fill="#E5E5E5"/>
<path d="M130.596 13.2318C131.206 13.2318 131.7 12.7324 131.7 12.1164C131.7 11.5004 131.206 11.001 130.596 11.001C129.986 11.001 129.492 11.5004 129.492 12.1164C129.492 12.7324 129.986 13.2318 130.596 13.2318Z" fill="white"/>
<path d="M134.744 12.6263C135.354 12.6263 135.848 12.1269 135.848 11.5109C135.848 10.8949 135.354 10.3955 134.744 10.3955C134.134 10.3955 133.64 10.8949 133.64 11.5109C133.64 12.1269 134.134 12.6263 134.744 12.6263Z" fill="white"/>
<path d="M138.892 12.0208C139.502 12.0208 139.997 11.5215 139.997 10.9054C139.997 10.2894 139.502 9.79004 138.892 9.79004C138.283 9.79004 137.788 10.2894 137.788 10.9054C137.788 11.5215 138.283 12.0208 138.892 12.0208Z" fill="white"/>
<path d="M297 21.46H156.765V88.678H297V21.46Z" fill="#E6E6E6"/>
<path d="M292.99 27.2246H160.775V83.3067H292.99V27.2246Z" fill="white"/>
<path d="M296.94 17.5771H156.705V23.5951H296.94V17.5771Z" fill="#CBCBCB"/>
<path d="M161.132 22.2308C161.742 22.2308 162.236 21.7314 162.236 21.1154C162.236 20.4994 161.742 20 161.132 20C160.522 20 160.028 20.4994 160.028 21.1154C160.028 21.7314 160.522 22.2308 161.132 22.2308Z" fill="white"/>
<path d="M165.323 22.2308C165.933 22.2308 166.428 21.7314 166.428 21.1154C166.428 20.4994 165.933 20 165.323 20C164.713 20 164.219 20.4994 164.219 21.1154C164.219 21.7314 164.713 22.2308 165.323 22.2308Z" fill="white"/>
<path d="M169.515 22.2308C170.125 22.2308 170.619 21.7314 170.619 21.1154C170.619 20.4994 170.125 20 169.515 20C168.905 20 168.411 20.4994 168.411 21.1154C168.411 21.7314 168.905 22.2308 169.515 22.2308Z" fill="white"/>
<path d="M255.582 35.751H236.961V37.1647H255.582V35.751Z" fill="#E6E6E6"/>
<path d="M265.716 39.9014H236.961V41.3151H265.716V39.9014Z" fill="#E6E6E6"/>
<path d="M260.695 43.8535H237.26V45.2673H260.695V43.8535Z" fill="#E6E6E6"/>
<path d="M250.642 48.1904H236.961V49.6042H250.642V48.1904Z" fill="#E6E6E6"/>
<path d="M257.609 52.4268H236.961V53.8405H257.609V52.4268Z" fill="#E6E6E6"/>
<path d="M230.754 35.3066H228.474V37.6098H230.754V35.3066Z" fill="#E6E6E6"/>
<path d="M230.754 39.457H228.474V41.7602H230.754V39.457Z" fill="#E6E6E6"/>
<path d="M230.754 43.4092H228.474V45.7124H230.754V43.4092Z" fill="#E6E6E6"/>
<path d="M230.754 47.7461H228.474V50.0493H230.754V47.7461Z" fill="#E6E6E6"/>
<path d="M230.754 51.9824H228.474V54.2856H230.754V51.9824Z" fill="#E6E6E6"/>
<path d="M255.582 56.6904H236.961V58.1042H255.582V56.6904Z" fill="#E6E6E6"/>
<path d="M265.716 60.8398H236.961V62.2536H265.716V60.8398Z" fill="#E6E6E6"/>
<path d="M260.695 64.793H237.26V66.2067H260.695V64.793Z" fill="#E6E6E6"/>
<path d="M250.642 69.1299H236.961V70.5436H250.642V69.1299Z" fill="#E6E6E6"/>
<path d="M257.609 73.3662H236.961V74.78H257.609V73.3662Z" fill="#E6E6E6"/>
<path d="M230.754 56.2451H228.474V58.5483H230.754V56.2451Z" fill="#E6E6E6"/>
<path d="M230.754 60.3955H228.474V62.6987H230.754V60.3955Z" fill="#E6E6E6"/>
<path d="M230.754 64.3486H228.474V66.6518H230.754V64.3486Z" fill="#E6E6E6"/>
<path d="M230.754 68.6855H228.474V70.9888H230.754V68.6855Z" fill="#E6E6E6"/>
<path d="M230.754 72.9219H228.474V75.2251H230.754V72.9219Z" fill="#E6E6E6"/>
<path d="M196.675 67.7793H178.054V69.1931H196.675V67.7793Z" fill="#E6E6E6"/>
<path d="M198.997 71.4531H175.563V72.8669H198.997V71.4531Z" fill="#E6E6E6"/>
<path d="M199.467 49.9456C199.467 52.0704 198.92 54.1587 197.882 56.0066C196.843 57.8544 195.348 59.3986 193.542 60.4883C191.736 61.5781 189.682 62.1761 187.579 62.224C185.476 62.2719 183.396 61.7681 181.544 60.7617L181.541 60.7593C179.649 59.7295 178.061 58.2114 176.938 56.3596C175.816 54.5078 175.2 52.3885 175.152 50.2178C175.105 48.047 175.628 45.9023 176.668 44.0023C177.708 42.1022 179.228 40.5146 181.074 39.4013C182.919 38.2881 185.024 37.6889 187.173 37.6648C189.323 37.6408 191.44 38.1927 193.31 39.2644C195.179 40.3361 196.734 41.8892 197.816 43.7655C198.897 45.6418 199.467 47.7743 199.467 49.9456Z" fill="#E6E6E6"/>
<path d="M187.371 49.3492C189.196 49.3492 190.676 47.8544 190.676 46.0105C190.676 44.1666 189.196 42.6719 187.371 42.6719C185.546 42.6719 184.066 44.1666 184.066 46.0105C184.066 47.8544 185.546 49.3492 187.371 49.3492Z" fill="white"/>
<path d="M193.015 56.2481C189.32 57.5582 185.291 57.5424 181.606 56.2035L181.603 56.2018L184.066 51.292H190.676L193.015 56.2481Z" fill="white"/>
<path d="M150.777 80.4306C145.016 80.4306 140.329 75.4014 140.329 69.2196C140.329 63.0379 145.016 58.0088 150.777 58.0088C156.538 58.0088 161.224 63.0379 161.224 69.2196C161.224 75.4014 156.538 80.4306 150.777 80.4306ZM150.777 60.8415C146.562 60.8415 143.133 64.5999 143.133 69.2196C143.133 73.8393 146.562 77.5979 150.777 77.5979C154.991 77.5979 158.42 73.8393 158.42 69.2196C158.42 64.5999 154.991 60.8415 150.777 60.8415Z" fill="#E67E22"/>
<path d="M160.67 99.9687H140.883C139.138 99.9667 137.465 99.2656 136.231 98.0193C134.997 96.773 134.303 95.0831 134.301 93.3205V73.7147C134.303 72.508 134.778 71.351 135.623 70.4977C136.467 69.6445 137.613 69.1645 138.807 69.1631H162.746C163.941 69.1645 165.086 69.6445 165.931 70.4977C166.775 71.351 167.25 72.508 167.252 73.7147V93.3205C167.25 95.0831 166.556 96.773 165.322 98.0193C164.088 99.2656 162.415 99.9667 160.67 99.9687Z" fill="#3F3D56"/>
<path d="M154.633 80.3169C154.633 79.6245 154.451 78.9445 154.105 78.3469C153.759 77.7493 153.261 77.2557 152.663 76.917C152.065 76.5782 151.389 76.4065 150.704 76.4196C150.018 76.4327 149.349 76.6301 148.764 76.9915C148.18 77.3528 147.701 77.8651 147.377 78.4755C147.054 79.0859 146.897 79.7724 146.924 80.4643C146.95 81.1561 147.159 81.8283 147.528 82.4117C147.897 82.9951 148.413 83.4685 149.024 83.7832V89.8772H152.529V83.7832C153.162 83.4574 153.694 82.9613 154.065 82.3495C154.436 81.7378 154.632 81.0344 154.633 80.3169Z" fill="white"/>
</g>
</g>
<defs>
<clipPath id="clip0_1649_2145">
<rect width="336" height="150" rx="8" fill="white"/>
</clipPath>
<clipPath id="clip1_1649_2145">
<rect width="259" height="162" fill="white" transform="translate(38 -11)"/>
</clipPath>
</defs>
</svg>
