<svg width="248" height="48" viewBox="0 0 248 48" fill="none" xmlns="http://www.w3.org/2000/svg">
<path d="M25.0968 40H22.1291M22.1291 40H21.0968C20.0278 40 19.1613 39.1334 19.1613 38.0646V31.2258C19.1613 30.1568 18.2948 29.2903 17.2258 29.2903H13.2258C12.1569 29.2903 11.2903 28.4237 11.2903 27.3548V22.3226C11.2903 21.2536 12.1569 20.3871 13.2258 20.3871H17.2258C18.2948 20.3871 19.1613 19.5205 19.1613 18.4516V11.7419C19.1613 10.6729 20.0278 9.8064 21.0968 9.8064H22.1291H9.93548C8.86655 9.8064 8 10.6729 8 11.7419V38.0646C8 39.1334 8.86655 40 9.93548 40H22.1291Z" stroke="white" stroke-width="2.5"/>
<path d="M24.0646 8H27.0323M27.0323 8H28.0646C29.1336 8 30.0001 8.86655 30.0001 9.93549V16.7742C30.0001 17.8432 30.8666 18.7097 31.9356 18.7097H35.9355C37.0044 18.7097 37.871 19.5763 37.871 20.6452V25.6776C37.871 26.7463 37.0044 27.6129 35.9355 27.6129H31.9356C30.8666 27.6129 30.0001 28.4794 30.0001 29.5484V36.2582C30.0001 37.3272 29.1336 38.1937 28.0646 38.1937H27.0323H39.2259C40.2948 38.1937 41.1614 37.3272 41.1614 36.2582V9.93549C41.1614 8.86655 40.2948 8 39.2259 8H27.0323Z" stroke="white" stroke-width="2.5"/>
<path d="M53.1614 16.2125H56.2259L61.5542 28.2845H61.7503L67.0786 16.2125H70.1431V31.7422H67.7405V20.5041H67.5852L62.6493 31.7194H60.6553L55.7193 20.4965H55.564V31.7422H53.1614V16.2125ZM74.2747 31.7422V16.2125H84.7678V18.2294H76.7999V22.9613H84.2202V24.9706H76.7999V29.7253H84.8658V31.7422H74.2747ZM94.0192 31.7422H88.601V16.2125H94.1908C95.8307 16.2125 97.239 16.5232 98.4158 17.145C99.5926 17.7617 100.494 18.6489 101.121 19.8065C101.753 20.9591 102.069 22.342 102.069 23.9547C102.069 25.572 101.75 26.9626 101.113 28.1253C100.481 29.2881 99.5654 30.1829 98.3668 30.8093C97.1682 31.4311 95.719 31.7422 94.0192 31.7422ZM91.1263 29.6948H93.8803C95.1551 29.6948 96.2148 29.4726 97.0592 29.0278C97.9037 28.5778 98.5357 27.9281 98.9552 27.0785C99.3747 26.2243 99.5844 25.1831 99.5844 23.9547C99.5844 22.7361 99.3747 21.7024 98.9552 20.8529C98.5411 20.0038 97.9228 19.3591 97.1001 18.9194C96.2775 18.4796 95.2559 18.2599 94.0355 18.2599H91.1263V29.6948ZM105.669 16.2125H108.733L114.062 28.2845H114.258L119.586 16.2125H122.651V31.7422H120.248V20.5041H120.093L115.157 31.7194H113.163L108.227 20.4965H108.072V31.7422H105.669V16.2125ZM126.783 31.7422V16.2125H137.275V18.2294H129.307V22.9613H136.728V24.9706H129.307V29.7253H137.373V31.7422H126.783ZM141.109 16.2125H144.173L149.502 28.2845H149.698L155.026 16.2125H158.09V31.7422H155.688V20.5041H155.533L150.596 31.7194H148.603L143.667 20.4965H143.511V31.7422H141.109V16.2125ZM176.76 23.9771C176.76 25.6356 176.434 27.0612 175.78 28.254C175.126 29.4421 174.229 30.3573 173.091 30.9989C171.958 31.636 170.67 31.9547 169.226 31.9547C167.777 31.9547 166.482 31.636 165.344 30.9989C164.211 30.3573 163.317 29.4396 162.663 28.2463C162.01 27.0536 161.683 25.6305 161.683 23.9771C161.683 22.3192 162.01 20.8961 162.663 19.7079C163.317 18.5152 164.211 17.6 165.344 16.9629C166.482 16.3208 167.777 16 169.226 16C170.67 16 171.958 16.3208 173.091 16.9629C174.229 17.6 175.126 18.5152 175.78 19.7079C176.434 20.8961 176.76 22.3192 176.76 23.9771ZM174.26 23.9771C174.26 22.7132 174.039 21.6491 173.598 20.7847C173.162 19.9153 172.563 19.258 171.8 18.8131C171.043 18.3631 170.185 18.1384 169.226 18.1384C168.262 18.1384 167.401 18.3631 166.644 18.8131C165.886 19.258 165.287 19.9153 164.845 20.7847C164.41 21.6491 164.192 22.7132 164.192 23.9771C164.192 25.2411 164.41 26.3077 164.845 27.1771C165.287 28.0419 165.886 28.6988 166.644 29.1488C167.401 29.5936 168.262 29.8163 169.226 29.8163C170.185 29.8163 171.043 29.5936 171.8 29.1488C172.563 28.6988 173.162 28.0419 173.598 27.1771C174.039 26.3077 174.26 25.2411 174.26 23.9771ZM189.497 20.2921C189.41 19.5742 189.05 19.018 188.419 18.6235C187.787 18.2243 186.991 18.0245 186.032 18.0245C185.346 18.0245 184.752 18.1257 184.251 18.3281C183.75 18.5253 183.36 18.7978 183.082 19.1471C182.81 19.4908 182.674 19.8823 182.674 20.3221C182.674 20.6912 182.766 21.01 182.951 21.2779C183.142 21.5459 183.39 21.7706 183.695 21.9526C184.006 22.1295 184.338 22.2785 184.692 22.4C185.046 22.5164 185.387 22.6125 185.713 22.6883L187.348 23.0823C187.882 23.2038 188.429 23.368 188.991 23.5755C189.552 23.7824 190.072 24.0554 190.552 24.3945C191.031 24.7331 191.418 25.1526 191.712 25.6529C192.012 26.1537 192.161 26.7526 192.161 27.4501C192.161 28.3297 191.916 29.1112 191.426 29.7935C190.941 30.4758 190.235 31.0142 189.309 31.4087C188.388 31.8027 187.274 32 185.967 32C184.714 32 183.63 31.8154 182.715 31.4463C181.799 31.0772 181.083 30.554 180.565 29.8768C180.047 29.1945 179.761 28.3856 179.707 27.4501H182.241C182.289 28.0114 182.486 28.4792 182.829 28.8529C183.178 29.222 183.621 29.4975 184.161 29.6796C184.706 29.8565 185.302 29.945 185.951 29.945C186.664 29.945 187.299 29.8412 187.855 29.6343C188.416 29.4218 188.857 29.1284 189.178 28.7547C189.5 28.3755 189.661 27.9331 189.661 27.4273C189.661 26.9677 189.519 26.5909 189.236 26.2976C188.958 26.0042 188.579 25.7617 188.1 25.5695C187.626 25.3778 187.089 25.208 186.49 25.0616L184.512 24.5613C183.172 24.2227 182.11 23.7244 181.325 23.0676C180.546 22.4102 180.156 21.5408 180.156 20.4589C180.156 19.564 180.418 18.7831 180.941 18.1155C181.464 17.4485 182.172 16.9299 183.066 16.5613C183.96 16.1871 184.967 16 186.089 16C187.223 16 188.222 16.1846 189.089 16.5537C189.96 16.9228 190.647 17.4307 191.148 18.0779C191.649 18.7195 191.911 19.4578 191.932 20.2921H189.497Z" fill="white"/>
</svg>
