<svg width="174" height="94" viewBox="0 0 174 94" fill="none" xmlns="http://www.w3.org/2000/svg">
<path d="M87.7788 58.0004H82.5853M82.5853 58.0004H80.7787C78.908 58.0004 77.3916 56.4839 77.3916 54.6135V42.6455C77.3916 40.7749 75.8752 39.2584 74.0046 39.2584H67.0046C65.1339 39.2584 63.6175 37.742 63.6175 35.8713V27.0649C63.6175 25.1943 65.1339 23.6778 67.0046 23.6778H74.0046C75.8752 23.6778 77.3916 22.1614 77.3916 20.2907V8.54872C77.3916 6.67808 78.908 5.16162 80.7787 5.16162H82.5853H61.2465C59.3758 5.16162 57.8594 6.67808 57.8594 8.54872V54.6135C57.8594 56.4839 59.3758 58.0004 61.2465 58.0004H82.5853Z" stroke="white" stroke-width="2.5"/>
<path d="M85.9727 2H91.1661M91.1661 2H92.9727C94.8434 2 96.3598 3.51646 96.3598 5.3871V17.3549C96.3598 19.2255 97.8763 20.742 99.747 20.742H106.747C108.617 20.742 110.134 22.2585 110.134 24.1291V32.9357C110.134 34.8061 108.617 36.3226 106.747 36.3226H99.747C97.8763 36.3226 96.3598 37.839 96.3598 39.7097V51.4519C96.3598 53.3226 94.8434 54.839 92.9727 54.839H91.1661H112.505C114.376 54.839 115.892 53.3226 115.892 51.4519V5.3871C115.892 3.51646 114.376 2 112.505 2H91.1661Z" stroke="white" stroke-width="2.5"/>
<path d="M0 74.2661H3.8307L10.491 89.3561H10.7361L17.3965 74.2661H21.2272V93.6783H18.2239V79.6306H18.0298L11.8599 93.6497H9.36735L3.19736 79.6211H3.00327V93.6783H0V74.2661ZM26.3917 93.6783V74.2661H39.508V76.7873H29.5481V82.7021H38.8236V85.2137H29.5481V91.1571H39.6305V93.6783H26.3917ZM51.0723 93.6783H44.2996V74.2661H51.2868C53.3366 74.2661 55.097 74.6544 56.5681 75.4317C58.039 76.2026 59.1661 77.3116 59.9493 78.7587C60.7393 80.1994 61.1343 81.928 61.1343 83.9439C61.1343 85.9655 60.7358 87.7037 59.939 89.1571C59.1491 90.6106 58.005 91.7291 56.5068 92.5121C55.0085 93.2893 53.197 93.6783 51.0723 93.6783ZM47.4561 91.119H50.8986C52.4922 91.119 53.8167 90.8413 54.8723 90.2852C55.9279 89.7228 56.7179 88.9106 57.2422 87.8486C57.7666 86.7809 58.0288 85.4794 58.0288 83.9439C58.0288 82.4206 57.7666 81.1285 57.2422 80.0666C56.7247 79.0053 55.9517 78.1994 54.9234 77.6497C53.8951 77.1 52.6182 76.8254 51.0927 76.8254H47.4561V91.119ZM65.6348 74.2661H69.4651L76.1258 89.3561H76.371L83.031 74.2661H86.8617V93.6783H83.8584V79.6306H83.6646L77.4943 93.6497H75.0019L68.8323 79.6211H68.6378V93.6783H65.6348V74.2661ZM92.0266 93.6783V74.2661H105.142V76.7873H95.1826V82.7021H104.458V85.2137H95.1826V91.1571H105.265V93.6783H92.0266ZM109.934 74.2661H113.765L120.425 89.3561H120.671L127.331 74.2661H131.161V93.6783H128.158V79.6306H127.964L121.794 93.6497H119.302L113.132 79.6211H112.937V93.6783H109.934V74.2661ZM154.499 83.9719C154.499 86.045 154.091 87.827 153.273 89.3179C152.456 90.8032 151.335 91.9471 149.912 92.7491C148.496 93.5454 146.885 93.9439 145.081 93.9439C143.269 93.9439 141.651 93.5454 140.228 92.7491C138.812 91.9471 137.695 90.8 136.878 89.3084C136.06 87.8175 135.652 86.0386 135.652 83.9719C135.652 81.8994 136.06 80.1206 136.878 78.6354C137.695 77.1444 138.812 76.0005 140.228 75.2042C141.651 74.4015 143.269 74.0005 145.081 74.0005C146.885 74.0005 148.496 74.4015 149.912 75.2042C151.335 76.0005 152.456 77.1444 153.273 78.6354C154.091 80.1206 154.499 81.8994 154.499 83.9719ZM151.373 83.9719C151.373 82.392 151.097 81.0618 150.545 79.9814C150.001 78.8947 149.252 78.0729 148.298 77.5169C147.352 76.9544 146.279 76.6735 145.081 76.6735C143.875 76.6735 142.799 76.9544 141.853 77.5169C140.906 78.0729 140.157 78.8947 139.605 79.9814C139.06 81.0618 138.788 82.392 138.788 83.9719C138.788 85.5518 139.06 86.8851 139.605 87.9719C140.157 89.0529 140.906 89.874 141.853 90.4365C142.799 90.9925 143.875 91.2709 145.081 91.2709C146.279 91.2709 147.352 90.9925 148.298 90.4365C149.252 89.874 150.001 89.0529 150.545 87.9719C151.097 86.8851 151.373 85.5518 151.373 83.9719ZM170.42 79.3656C170.311 78.4682 169.861 77.773 169.071 77.2798C168.282 76.7809 167.287 76.5311 166.089 76.5311C165.23 76.5311 164.488 76.6576 163.862 76.9106C163.235 77.1571 162.748 77.4978 162.401 77.9344C162.061 78.364 161.89 78.8534 161.89 79.4031C161.89 79.8645 162.006 80.263 162.237 80.5979C162.476 80.9328 162.786 81.2137 163.167 81.4412C163.555 81.6624 163.971 81.8486 164.413 82.0005C164.856 82.146 165.282 82.2661 165.69 82.3608L167.733 82.8534C168.401 83.0052 169.085 83.2105 169.786 83.4698C170.488 83.7285 171.138 84.0698 171.738 84.4937C172.337 84.9169 172.821 85.4412 173.188 86.0666C173.563 86.6926 173.75 87.4412 173.75 88.3132C173.75 89.4126 173.444 90.3894 172.831 91.2423C172.225 92.0952 171.343 92.7682 170.185 93.2614C169.034 93.7539 167.641 94.0005 166.007 94.0005C164.441 94.0005 163.085 93.7698 161.942 93.3084C160.797 92.847 159.902 92.193 159.255 91.3465C158.607 90.4937 158.25 89.4825 158.182 88.3132H161.349C161.41 89.0148 161.655 89.5995 162.084 90.0666C162.52 90.528 163.075 90.8724 163.749 91.0999C164.431 91.3211 165.176 91.4317 165.987 91.4317C166.878 91.4317 167.672 91.302 168.367 91.0434C169.068 90.7777 169.62 90.411 170.021 89.9439C170.423 89.4698 170.624 88.9169 170.624 88.2846C170.624 87.7101 170.447 87.2391 170.093 86.8724C169.745 86.5057 169.272 86.2026 168.673 85.9623C168.08 85.7228 167.41 85.5105 166.661 85.3275L164.189 84.7021C162.513 84.2789 161.185 83.656 160.205 82.8349C159.231 82.0132 158.744 80.9265 158.744 79.5741C158.744 78.4555 159.071 77.4794 159.725 76.6449C160.379 75.8111 161.264 75.1629 162.381 74.7021C163.498 74.2344 164.757 74.0005 166.16 74.0005C167.577 74.0005 168.826 74.2312 169.909 74.6926C170.999 75.154 171.857 75.7889 172.484 76.5979C173.11 77.3999 173.437 78.3227 173.464 79.3656H170.42Z" fill="white"/>
</svg>
