<svg width="60" height="91" viewBox="0 0 60 91" fill="none" xmlns="http://www.w3.org/2000/svg">
<path fill-rule="evenodd" clip-rule="evenodd" d="M14.3964 87.6624L14.3551 85.4243C14.3487 85.0379 14.2932 84.6539 14.1898 84.2815L12.8707 79.3709H3.64797C2.68129 79.3687 1.75481 78.9838 1.07117 78.3004C0.387535 77.617 0.00239569 76.6906 0 75.7239V3.95165C0.00239569 2.98498 0.387535 2.0586 1.07117 1.37515C1.75481 0.6917 2.68129 0.306816 3.64797 0.304688H56.352C57.3187 0.306816 58.2452 0.6917 58.9288 1.37515C59.6125 2.0586 59.9976 2.98498 60 3.95165V75.7239C59.9976 76.6906 59.6125 77.617 58.9288 78.3004C58.2452 78.9838 57.3187 79.3687 56.352 79.3709H49.8441L47.3389 84.1072C46.9617 84.7983 46.7697 85.5752 46.7817 86.3625V87.5949C46.7857 88.0423 46.7007 88.486 46.5317 88.9003C46.3627 89.3146 46.1131 89.6911 45.7973 90.0081C45.4815 90.325 45.1058 90.576 44.6921 90.7464C44.2785 90.9169 43.835 91.0035 43.3876 91.001H17.7914C16.9014 90.9993 16.0475 90.649 15.4128 90.025C14.7781 89.4011 14.4132 88.5523 14.3964 87.6624ZM23.8861 28.6218C24.4563 29.7549 25.3301 30.7074 26.41 31.3729C27.4899 32.0385 28.7335 32.3909 30.002 32.3909C31.2705 32.3909 32.5141 32.0385 33.594 31.3729C34.6739 30.7074 35.5477 29.7549 36.1179 28.6218C36.185 28.4971 36.2264 28.3602 36.2397 28.2193C36.2531 28.0783 36.238 27.9361 36.1955 27.8011C36.153 27.666 36.0838 27.5409 35.9921 27.433C35.9005 27.3251 35.7881 27.2366 35.6617 27.1729C35.5352 27.1091 35.3973 27.0714 35.2561 27.0618C35.1148 27.0522 34.973 27.071 34.8392 27.1171C34.7053 27.1632 34.582 27.2357 34.4766 27.3302C34.3712 27.4247 34.2858 27.5394 34.2254 27.6675C33.8295 28.4475 33.2253 29.1026 32.4798 29.5602C31.7344 30.0178 30.8767 30.26 30.002 30.26C29.1273 30.26 28.2697 30.0178 27.5242 29.5602C26.7787 29.1026 26.1746 28.4475 25.7786 27.6675C25.7183 27.5394 25.6329 27.4247 25.5274 27.3302C25.422 27.2357 25.2987 27.1632 25.1649 27.1171C25.031 27.071 24.8892 27.0522 24.748 27.0618C24.6067 27.0714 24.4688 27.1091 24.3424 27.1729C24.216 27.2366 24.1036 27.3251 24.0119 27.433C23.9202 27.5409 23.8511 27.666 23.8085 27.8011C23.766 27.9361 23.751 28.0783 23.7643 28.2193C23.7776 28.3602 23.819 28.4971 23.8861 28.6218ZM34.2173 24.7602C34.4935 24.7517 34.7555 24.636 34.9479 24.4376C35.1402 24.2393 35.2478 23.9738 35.2478 23.6975C35.2478 23.4212 35.1402 23.1558 34.9479 22.9574C34.7555 22.7591 34.4935 22.6434 34.2173 22.6349C34.075 22.6305 33.9333 22.6547 33.8005 22.7062C33.6678 22.7576 33.5467 22.8352 33.4445 22.9343C33.3423 23.0334 33.261 23.152 33.2055 23.2831C33.1501 23.4142 33.1215 23.5552 33.1215 23.6975C33.1215 23.8399 33.1501 23.9808 33.2055 24.1119C33.261 24.243 33.3423 24.3617 33.4445 24.4608C33.5467 24.5599 33.6678 24.6375 33.8005 24.6889C33.9333 24.7403 34.075 24.7646 34.2173 24.7602ZM25.7857 24.7602C25.928 24.7646 26.0697 24.7403 26.2025 24.6889C26.3352 24.6375 26.4563 24.5599 26.5585 24.4608C26.6607 24.3617 26.742 24.243 26.7975 24.1119C26.853 23.9808 26.8816 23.8399 26.8816 23.6975C26.8816 23.5552 26.853 23.4142 26.7975 23.2831C26.742 23.152 26.6607 23.0334 26.5585 22.9343C26.4563 22.8352 26.3352 22.7576 26.2025 22.7062C26.0697 22.6547 25.928 22.6305 25.7857 22.6349C25.6434 22.6305 25.5017 22.6547 25.3689 22.7062C25.2361 22.7576 25.1151 22.8352 25.0129 22.9343C24.9107 23.0334 24.8294 23.152 24.7739 23.2831C24.7184 23.4142 24.6898 23.5552 24.6898 23.6975C24.6898 23.8399 24.7184 23.9808 24.7739 24.1119C24.8294 24.243 24.9107 24.3617 25.0129 24.4608C25.1151 24.5599 25.2361 24.6375 25.3689 24.6889C25.5017 24.7403 25.6434 24.7646 25.7857 24.7602ZM21.3799 34.4212C19.5514 32.4412 18.4602 29.8922 18.2895 27.2025C18.1188 24.5127 18.8791 21.8462 20.4426 19.6509C22.0061 17.4556 24.2776 15.8654 26.8753 15.1474C29.4731 14.4294 32.2388 14.6273 34.7078 15.708C37.1768 16.7887 39.1986 18.6863 40.4335 21.0818C41.6684 23.4774 42.0411 26.225 41.4891 28.8631C40.937 31.5011 39.4939 33.8687 37.402 35.5681C35.3102 37.2675 32.6972 38.1952 30.002 38.1952C29.7753 38.1952 29.5475 38.1891 29.3208 38.176V51.6503C30.208 51.0767 31.2653 50.8253 32.3157 50.9381C33.3661 51.0509 34.3459 51.5212 35.091 52.2701C35.5383 52.7178 35.89 53.2515 36.125 53.8391C36.7256 53.3781 37.4301 53.0712 38.1768 52.9453C38.9234 52.8194 39.6896 52.8784 40.4082 53.117C41.1268 53.3556 41.7761 53.7666 42.2991 54.3141C42.8222 54.8616 43.2032 55.5289 43.4088 56.2577C44.1013 55.7685 44.9148 55.4789 45.7606 55.4206C46.6064 55.3622 47.452 55.5372 48.2051 55.9266C48.9582 56.316 49.5899 56.9048 50.0312 57.6287C50.4725 58.3526 50.7066 59.1838 50.7078 60.0316V63.1082H51.3719C51.6448 63.1069 51.9062 62.998 52.0994 62.8052C52.2925 62.6124 52.4019 62.3512 52.4038 62.0783V9.04873C52.4027 8.77528 52.2937 8.51332 52.1004 8.31987C51.9072 8.12642 51.6453 8.01713 51.3719 8.01581H8.63218C8.35872 8.01739 8.09692 8.12673 7.90355 8.3201C7.71018 8.51346 7.60085 8.77527 7.59926 9.04873V62.0783C7.60085 62.3517 7.71018 62.6135 7.90355 62.8069C8.09692 63.0003 8.35872 63.1096 8.63218 63.1112H9.72355C9.82512 62.8624 9.94329 62.6207 10.0773 62.3877C10.4539 61.7295 10.957 61.1523 11.5574 60.6892C12.1578 60.2261 12.8439 59.8862 13.5761 59.689C14.8033 59.3659 16.1026 59.4543 17.2748 59.9404C18.4471 60.4266 19.4275 61.2838 20.0658 62.3806V37.648C20.0646 36.4432 20.5348 35.2858 21.3759 34.4233L21.3799 34.4212ZM29.0265 36.0225L29.1807 36.0366C29.4478 36.0598 29.7209 36.0709 30.002 36.0709C32.2333 36.0732 34.3964 35.3013 36.1221 33.8869C37.8479 32.4724 39.0294 30.5031 39.4653 28.3147C39.9011 26.1264 39.5642 23.8546 38.5121 21.8869C37.4599 19.9192 35.7577 18.3775 33.6957 17.5248C31.6338 16.672 29.3398 16.5611 27.2052 17.2108C25.0706 17.8606 23.2275 19.2308 21.9903 21.0878C20.7532 22.9447 20.1986 25.1734 20.4212 27.3936C20.6438 29.6138 21.6298 31.688 23.211 33.2624C24.0278 32.985 24.9061 32.9422 25.746 33.1391C26.586 33.3359 27.3538 33.7644 27.9624 34.3759C28.4297 34.8432 28.7924 35.4045 29.0265 36.0225ZM9.29829 65.2325H8.63218C7.79584 65.2306 6.99422 64.8978 6.40246 64.3068C5.8107 63.7158 5.47689 62.9146 5.47397 62.0783V9.04873C5.4753 8.21152 5.80847 7.409 6.40046 6.817C6.99245 6.22501 7.79498 5.89185 8.63218 5.89051H51.3719C52.2091 5.89185 53.0116 6.22501 53.6036 6.817C54.1956 7.409 54.5287 8.21152 54.5301 9.04873V62.0783C54.5282 62.9153 54.1949 63.7175 53.603 64.3094C53.0111 64.9013 52.2089 65.2346 51.3719 65.2365H50.7078V76.0303C50.7098 76.4375 50.676 76.8442 50.607 77.2456H56.3581C56.761 77.2435 57.1468 77.0825 57.4317 76.7975C57.7166 76.5126 57.8776 76.1268 57.8797 75.7239V3.95165C57.8779 3.54874 57.7169 3.16288 57.4319 2.87808C57.147 2.59327 56.761 2.43258 56.3581 2.43099H3.65401C3.25111 2.43258 2.86514 2.59327 2.58015 2.87808C2.29515 3.16288 2.1342 3.54874 2.13235 3.95165V75.7239C2.13447 76.1268 2.29546 76.5126 2.58037 76.7975C2.86528 77.0825 3.2511 77.2435 3.65401 77.2456H12.3104L9.49379 66.7562C9.36081 66.2593 9.29506 65.7468 9.29829 65.2325ZM16.4723 85.387L16.5146 87.6252C16.522 87.9586 16.6599 88.2758 16.8986 88.5087C17.1373 88.7416 17.4579 88.8716 17.7914 88.8707H43.3876C43.6402 88.8697 43.887 88.795 44.0977 88.6557C44.3084 88.5164 44.4738 88.3187 44.5737 88.0867C44.6361 87.9289 44.6669 87.7605 44.6644 87.5909V86.3584C44.6484 85.2267 44.9232 84.1097 45.4625 83.1146L48.0282 78.2644C48.4041 77.5795 48.5947 76.8084 48.5815 76.0272V60.0306C48.5683 59.3758 48.299 58.7523 47.8313 58.2938C47.3635 57.8354 46.7347 57.5786 46.0798 57.5786C45.4249 57.5786 44.796 57.8354 44.3283 58.2938C43.8606 58.7523 43.5912 59.3758 43.5781 60.0306H41.4528V57.4982C41.4397 56.8434 41.1703 56.2198 40.7026 55.7614C40.2349 55.303 39.6061 55.0462 38.9511 55.0462C38.2962 55.0462 37.6674 55.303 37.1997 55.7614C36.7319 56.2198 36.4626 56.8434 36.4494 57.4982H34.3242V55.5392C34.311 54.8844 34.0417 54.2608 33.5739 53.8024C33.1062 53.344 32.4774 53.0872 31.8225 53.0872C31.1675 53.0872 30.5387 53.344 30.071 53.8024C29.6033 54.2608 29.3339 54.8844 29.3208 55.5392H27.1955V37.648C27.1824 36.9932 26.913 36.3697 26.4453 35.9112C25.9776 35.4528 25.3487 35.196 24.6938 35.196C24.0389 35.196 23.4101 35.4528 22.9424 35.9112C22.4746 36.3697 22.2053 36.9932 22.1921 37.648V69.6866C22.1928 69.9446 22.0995 70.194 21.9296 70.3881C21.7598 70.5823 21.525 70.7079 21.2692 70.7415C21.0134 70.7751 20.7541 70.7144 20.5399 70.5707C20.3257 70.427 20.1711 70.2101 20.1051 69.9607L18.6067 64.3759C18.5956 64.3416 18.5865 64.3064 18.5784 64.2701C18.3187 63.3568 17.7137 62.5806 16.8914 62.1058C16.0692 61.631 15.0944 61.495 14.1737 61.7266C14.1414 61.7367 14.1082 61.7457 14.0729 61.7528C13.1512 62.0158 12.3697 62.6304 11.8968 63.4641C11.4239 64.2978 11.2974 65.2839 11.5445 66.21L16.2405 83.7353C16.3872 84.2759 16.4651 84.8329 16.4723 85.393V85.387Z" fill="#E67E22"/>
</svg>
