<svg width="20" height="20" viewBox="0 0 20 20" fill="none" xmlns="http://www.w3.org/2000/svg">
<path fill-rule="evenodd" clip-rule="evenodd" d="M5.12318 7.95155C4.52295 4.95041 6.81842 2.15039 9.87899 2.15039H10.4998C13.1864 2.15039 15.3498 4.35923 15.3498 7.02971C15.3498 8.52308 14.6614 9.95154 13.4774 10.8724L10.9077 12.8711C10.8711 12.8995 10.8498 12.9432 10.8498 12.9895V13.5004C10.8498 13.9698 10.4692 14.3504 9.99978 14.3504C9.53033 14.3504 9.14978 13.9698 9.14978 13.5004V12.9895C9.14978 12.4186 9.41335 11.8797 9.86399 11.5292L12.4337 9.53051C13.1984 8.93574 13.6498 8.00507 13.6498 7.02971C13.6498 5.28192 12.2314 3.85039 10.4998 3.85039H9.87899C7.8912 3.85039 6.40032 5.66896 6.79016 7.61816L6.83327 7.83369C6.92533 8.29402 6.6268 8.74182 6.16647 8.83388C5.70615 8.92595 5.25835 8.62742 5.16628 8.16709L5.12318 7.95155Z" fill="#1E1E1E"/>
<circle cx="9.9998" cy="16.7" r="0.6" stroke="#1E1E1E" stroke-width="1.2"/>
</svg>
