<svg width="37" height="36" viewBox="0 0 37 36" fill="none" xmlns="http://www.w3.org/2000/svg">
<rect x="0.5" width="36" height="36" rx="8" fill="#F6E7DA"/>
<path d="M9.67017 13.4404L18.5002 18.5504L27.2701 13.4704" stroke="#E67E22" stroke-width="1.5" stroke-linecap="round" stroke-linejoin="round"/>
<path d="M18.5002 27.61V18.54" stroke="#E67E22" stroke-width="1.5" stroke-linecap="round" stroke-linejoin="round"/>
<path d="M16.4301 8.48L11.0901 11.45C9.88012 12.12 8.89014 13.8 8.89014 15.18V20.83C8.89014 22.21 9.88012 23.89 11.0901 24.56L16.4301 27.53C17.5701 28.16 19.4401 28.16 20.5801 27.53L25.9201 24.56C27.1301 23.89 28.1201 22.21 28.1201 20.83V15.18C28.1201 13.8 27.1301 12.12 25.9201 11.45L20.5801 8.48C19.4301 7.84 17.5701 7.84 16.4301 8.48Z" stroke="#E67E22" stroke-width="1.5" stroke-linecap="round" stroke-linejoin="round"/>
<path d="M23.5 19.2396V15.5797L14.01 10.0996" stroke="#E67E22" stroke-width="1.5" stroke-linecap="round" stroke-linejoin="round"/>
</svg>
