<svg width="36" height="36" viewBox="0 0 36 36" fill="none" xmlns="http://www.w3.org/2000/svg">
<path d="M25.5 3.00049H10.5C6.35786 3.00049 3 6.35835 3 10.5005V25.5005C3 29.6426 6.35786 33.0005 10.5 33.0005H25.5C29.6421 33.0005 33 29.6426 33 25.5005V10.5005C33 6.35835 29.6421 3.00049 25.5 3.00049Z" stroke="white" stroke-width="2" stroke-linecap="round" stroke-linejoin="round"/>
<path d="M23.9996 17.0555C24.1847 18.3038 23.9714 19.5788 23.3902 20.699C22.8089 21.8192 21.8893 22.7276 20.762 23.295C19.6347 23.8624 18.3572 24.0598 17.1112 23.8594C15.8652 23.6589 14.7142 23.0706 13.8218 22.1782C12.9294 21.2858 12.3412 20.1348 12.1407 18.8888C11.9402 17.6428 12.1377 16.3653 12.7051 15.238C13.2724 14.1107 14.1808 13.1911 15.301 12.6098C16.4212 12.0286 17.6962 11.8153 18.9446 12.0005C20.2179 12.1893 21.3968 12.7826 22.3071 13.6929C23.2174 14.6032 23.8107 15.7821 23.9996 17.0555Z" stroke="white" stroke-width="2" stroke-linecap="round" stroke-linejoin="round"/>
<path d="M26.25 9.75049H26.265" stroke="white" stroke-width="2" stroke-linecap="round" stroke-linejoin="round"/>
</svg>
