<svg width="262" height="56" viewBox="0 0 262 56" fill="none" xmlns="http://www.w3.org/2000/svg">
<g clip-path="url(#clip0_102_3169)">
<rect x="0.5" y="4.48877" width="3.41985" height="47.0229" rx="1.70992" fill="#007BFF"/>
<rect x="5.62988" y="4.48877" width="3.41985" height="47.0229" rx="1.70992" fill="#007BFF"/>
<rect x="10.7598" y="10.9009" width="3.41985" height="34.1985" rx="1.70992" fill="#007BFF"/>
<rect x="15.8892" y="10.9009" width="3.41985" height="34.1985" rx="1.70992" fill="#007BFF"/>
<rect x="21.019" y="13.4658" width="3.41985" height="29.0687" rx="1.70992" fill="#007BFF"/>
<rect x="26.1489" y="13.4658" width="3.41985" height="29.0687" rx="1.70992" fill="#007BFF"/>
<rect x="31.2788" y="17.313" width="3.41985" height="21.374" rx="1.70992" fill="#007BFF"/>
<rect x="36.4082" y="17.313" width="3.41985" height="21.374" rx="1.70992" fill="#007BFF"/>
<rect x="41.5381" y="18.3818" width="3.41985" height="19.2366" rx="1.70992" fill="#007BFF"/>
<rect x="46.668" y="18.3818" width="3.41985" height="19.2366" rx="1.70992" fill="#007BFF"/>
<rect x="51.7979" y="13.8931" width="3.41985" height="28.2137" rx="1.70992" fill="#007BFF"/>
<rect x="56.9272" y="13.8931" width="3.41985" height="28.2137" rx="1.70992" fill="#007BFF"/>
<rect x="62.0571" y="12.1831" width="3.41985" height="31.6336" rx="1.70992" fill="#007BFF"/>
<rect x="67.187" y="12.1831" width="3.41985" height="31.6336" rx="1.70992" fill="#007BFF"/>
<rect x="72.3169" y="9.40479" width="3.41985" height="37.1908" rx="1.70992" fill="#007BFF"/>
<rect x="77.4468" y="9.40479" width="3.41985" height="37.1908" rx="1.70992" fill="#007BFF"/>
<rect x="82.5762" y="6.41211" width="3.41985" height="43.1756" rx="1.70992" fill="#007BFF"/>
<rect x="87.7061" y="6.41211" width="3.41985" height="43.1756" rx="1.70992" fill="#007BFF"/>
<rect x="92.8359" y="11.1147" width="3.41985" height="33.771" rx="1.70992" fill="#007BFF"/>
<rect x="97.9658" y="11.1147" width="3.41985" height="33.771" rx="1.70992" fill="#007BFF"/>
<rect x="103.095" y="24.1528" width="3.41985" height="7.69466" rx="1.70992" fill="#007BFF"/>
<rect x="108.225" y="24.1528" width="3.41985" height="7.69466" rx="1.70992" fill="#007BFF"/>
<rect x="113.355" y="26.29" width="3.41985" height="3.41985" rx="1.70992" fill="#007BFF"/>
<rect x="118.485" y="26.29" width="3.41985" height="3.41985" rx="1.70992" fill="#007BFF"/>
<rect x="123.614" y="26.29" width="3.41985" height="3.41985" rx="1.70992" fill="#007BFF"/>
<rect x="128.744" y="26.29" width="3.41985" height="3.41985" rx="1.70992" fill="#007BFF"/>
<rect x="133.874" y="26.29" width="3.41985" height="3.41985" rx="1.70992" fill="#007BFF"/>
<rect x="139.004" y="26.29" width="3.41985" height="3.41985" rx="1.70992" fill="#007BFF"/>
<rect x="144.134" y="25.0078" width="3.41985" height="5.98473" rx="1.70992" fill="#007BFF"/>
<rect x="149.263" y="25.0078" width="3.41985" height="5.98473" rx="1.70992" fill="#007BFF"/>
<rect x="154.393" y="24.3662" width="3.41985" height="7.26718" rx="1.70992" fill="#007BFF"/>
<rect x="159.523" y="24.3662" width="3.41985" height="7.26718" rx="1.70992" fill="#007BFF"/>
<rect x="164.653" y="15.603" width="3.41985" height="24.7939" rx="1.70992" fill="#007BFF"/>
<rect x="169.782" y="15.603" width="3.41985" height="24.7939" rx="1.70992" fill="#007BFF"/>
<rect x="174.912" y="13.0381" width="3.41985" height="29.9237" rx="1.70992" fill="#007BFF"/>
<rect x="180.042" y="13.0381" width="3.41985" height="29.9237" rx="1.70992" fill="#007BFF"/>
<rect x="185.172" y="17.9541" width="3.41985" height="20.0916" rx="1.70992" fill="#007BFF"/>
<rect x="190.302" y="17.9541" width="3.41985" height="20.0916" rx="1.70992" fill="#007BFF"/>
<rect x="195.431" y="22.4429" width="3.41985" height="11.1145" rx="1.70992" fill="#007BFF"/>
<rect x="200.561" y="22.4429" width="3.41985" height="11.1145" rx="1.70992" fill="#007BFF"/>
<rect x="205.691" y="15.8169" width="3.41985" height="24.3664" rx="1.70992" fill="#007BFF"/>
<rect x="210.821" y="15.8169" width="3.41985" height="24.3664" rx="1.70992" fill="#007BFF"/>
<rect x="215.95" y="10.0459" width="3.41985" height="35.9084" rx="1.70992" fill="#007BFF"/>
<rect x="221.08" y="10.0459" width="3.41985" height="35.9084" rx="1.70992" fill="#007BFF"/>
<rect x="226.21" y="5.98486" width="3.41985" height="44.0305" rx="1.70992" fill="#007BFF"/>
<rect x="231.34" y="5.98486" width="3.41985" height="44.0305" rx="1.70992" fill="#007BFF"/>
<rect x="236.47" width="3.41985" height="56" rx="1.70992" fill="#007BFF"/>
<rect x="241.599" width="3.41985" height="56" rx="1.70992" fill="#007BFF"/>
<rect x="246.729" y="2.35107" width="3.41985" height="51.2977" rx="1.70992" fill="#007BFF"/>
<rect x="251.859" y="2.35107" width="3.41985" height="51.2977" rx="1.70992" fill="#007BFF"/>
<rect x="256.989" y="8.12207" width="3.41985" height="39.7557" rx="1.70992" fill="#007BFF"/>
</g>
<defs>
<clipPath id="clip0_102_3169">
<rect width="261" height="56" fill="white" transform="translate(0.5)"/>
</clipPath>
</defs>
</svg>
