<svg width="360" height="126" viewBox="0 0 360 126" fill="none" xmlns="http://www.w3.org/2000/svg">
<rect width="360" height="1" transform="matrix(-1 0 0 1 360 0)" fill="url(#paint0_linear_303_7900)"/>
<rect width="360" height="1" transform="matrix(-1 0 0 1 360 25)" fill="url(#paint1_linear_303_7900)"/>
<rect width="360" height="1" transform="matrix(-1 0 0 1 360 50)" fill="url(#paint2_linear_303_7900)"/>
<rect width="360" height="1" transform="matrix(-1 0 0 1 360 75)" fill="url(#paint3_linear_303_7900)"/>
<rect width="360" height="1" transform="matrix(-1 0 0 1 360 100)" fill="url(#paint4_linear_303_7900)"/>
<rect width="360" height="1" transform="matrix(-1 0 0 1 360 125)" fill="url(#paint5_linear_303_7900)"/>
<defs>
<linearGradient id="paint0_linear_303_7900" x1="360" y1="0.5" x2="0" y2="0.5" gradientUnits="userSpaceOnUse">
<stop stop-color="#3498DB" stop-opacity="0"/>
<stop offset="0.989" stop-color="#FF8400"/>
</linearGradient>
<linearGradient id="paint1_linear_303_7900" x1="360" y1="0.5" x2="0" y2="0.5" gradientUnits="userSpaceOnUse">
<stop stop-color="#3498DB" stop-opacity="0"/>
<stop offset="0.989" stop-color="#FF8400"/>
</linearGradient>
<linearGradient id="paint2_linear_303_7900" x1="360" y1="0.5" x2="0" y2="0.5" gradientUnits="userSpaceOnUse">
<stop stop-color="#3498DB" stop-opacity="0"/>
<stop offset="0.989" stop-color="#FF8400"/>
</linearGradient>
<linearGradient id="paint3_linear_303_7900" x1="360" y1="0.5" x2="0" y2="0.5" gradientUnits="userSpaceOnUse">
<stop stop-color="#3498DB" stop-opacity="0"/>
<stop offset="0.989" stop-color="#FF8400"/>
</linearGradient>
<linearGradient id="paint4_linear_303_7900" x1="360" y1="0.5" x2="0" y2="0.5" gradientUnits="userSpaceOnUse">
<stop stop-color="#3498DB" stop-opacity="0"/>
<stop offset="0.989" stop-color="#FF8400"/>
</linearGradient>
<linearGradient id="paint5_linear_303_7900" x1="360" y1="0.5" x2="0" y2="0.5" gradientUnits="userSpaceOnUse">
<stop stop-color="#3498DB" stop-opacity="0"/>
<stop offset="0.989" stop-color="#FF8400"/>
</linearGradient>
</defs>
</svg>
