<svg width="52" height="52" viewBox="0 0 52 52" fill="none" xmlns="http://www.w3.org/2000/svg">
<g filter="url(#filter0_d_1549_8602)">
<rect x="2" y="1" width="48" height="48" rx="10" fill="#D1FADF"/>
<rect x="2.5" y="1.5" width="47" height="47" rx="9.5" stroke="#EAECF0"/>
<path d="M34.025 37H17.975C16.61 37 15.5 35.89 15.5 34.525V22.975C15.5 21.61 16.61 20.5 17.975 20.5H34.025C35.39 20.5 36.5 21.61 36.5 22.975V34.51C36.5 35.875 35.39 36.985 34.025 36.985V37ZM17.975 22C17.435 22 17 22.435 17 22.975V34.51C17 35.05 17.435 35.485 17.975 35.485H34.025C34.565 35.485 35 35.05 35 34.51V22.975C35 22.435 34.565 22 34.025 22H17.975Z" fill="#344054"/>
<path d="M32.8099 22H19.1899V19.81C19.1899 16.06 22.2499 13 25.9999 13C29.7499 13 32.8099 16.06 32.8099 19.81V22ZM20.6899 20.5H31.3099V19.81C31.3099 16.885 28.9249 14.5 25.9999 14.5C23.0749 14.5 20.6899 16.885 20.6899 19.81V20.5Z" fill="#344054"/>
<path d="M32 30.25C32.8284 30.25 33.5 29.5784 33.5 28.75C33.5 27.9216 32.8284 27.25 32 27.25C31.1716 27.25 30.5 27.9216 30.5 28.75C30.5 29.5784 31.1716 30.25 32 30.25Z" fill="#344054"/>
<path d="M26 30.25C26.8284 30.25 27.5 29.5784 27.5 28.75C27.5 27.9216 26.8284 27.25 26 27.25C25.1716 27.25 24.5 27.9216 24.5 28.75C24.5 29.5784 25.1716 30.25 26 30.25Z" fill="#344054"/>
<path d="M20 30.25C20.8284 30.25 21.5 29.5784 21.5 28.75C21.5 27.9216 20.8284 27.25 20 27.25C19.1716 27.25 18.5 27.9216 18.5 28.75C18.5 29.5784 19.1716 30.25 20 30.25Z" fill="#344054"/>
</g>
<defs>
<filter id="filter0_d_1549_8602" x="0" y="0" width="52" height="52" filterUnits="userSpaceOnUse" color-interpolation-filters="sRGB">
<feFlood flood-opacity="0" result="BackgroundImageFix"/>
<feColorMatrix in="SourceAlpha" type="matrix" values="0 0 0 0 0 0 0 0 0 0 0 0 0 0 0 0 0 0 127 0" result="hardAlpha"/>
<feOffset dy="1"/>
<feGaussianBlur stdDeviation="1"/>
<feColorMatrix type="matrix" values="0 0 0 0 0.0627451 0 0 0 0 0.0941176 0 0 0 0 0.156863 0 0 0 0.05 0"/>
<feBlend mode="normal" in2="BackgroundImageFix" result="effect1_dropShadow_1549_8602"/>
<feBlend mode="normal" in="SourceGraphic" in2="effect1_dropShadow_1549_8602" result="shape"/>
</filter>
</defs>
</svg>
