<svg width="20" height="20" viewBox="0 0 20 20" fill="none" xmlns="http://www.w3.org/2000/svg">
<path d="M12.7 18.5581H12.5916C8.89164 18.5581 7.10831 17.0997 6.79997 13.8331C6.76664 13.4914 7.01664 13.1831 7.36664 13.1497C7.70831 13.1164 8.01664 13.3747 8.04997 13.7164C8.29164 16.3331 9.52497 17.3081 12.6 17.3081H12.7083C16.1 17.3081 17.3 16.1081 17.3 12.7164V7.28307C17.3 3.89141 16.1 2.69141 12.7083 2.69141H12.6C9.50831 2.69141 8.27497 3.68307 8.04997 6.34974C8.00831 6.69141 7.72497 6.94974 7.36664 6.91641C7.01664 6.89141 6.76664 6.58307 6.79164 6.24141C7.07497 2.92474 8.86664 1.44141 12.5916 1.44141H12.7C16.7916 1.44141 18.5416 3.19141 18.5416 7.28307V12.7164C18.5416 16.8081 16.7916 18.5581 12.7 18.5581Z" fill="#71839B"/>
<path d="M12.4 10.625H1.66669C1.32502 10.625 1.04169 10.3417 1.04169 10C1.04169 9.65833 1.32502 9.375 1.66669 9.375H12.4C12.7417 9.375 13.025 9.65833 13.025 10C13.025 10.3417 12.75 10.625 12.4 10.625Z" fill="#71839B"/>
<path d="M10.5417 13.4162C10.3833 13.4162 10.225 13.3579 10.1 13.2329C9.85835 12.9912 9.85835 12.5912 10.1 12.3495L12.45 9.99954L10.1 7.64954C9.85835 7.40788 9.85835 7.00788 10.1 6.76621C10.3417 6.52454 10.7417 6.52454 10.9833 6.76621L13.775 9.55788C14.0167 9.79954 14.0167 10.1995 13.775 10.4412L10.9833 13.2329C10.8583 13.3579 10.7 13.4162 10.5417 13.4162Z" fill="#71839B"/>
</svg>
