<svg width="51" height="50" viewBox="0 0 51 50" fill="none" xmlns="http://www.w3.org/2000/svg">
<rect x="0.5" width="50" height="50" rx="25" fill="#F5CECE"/>
<path d="M28.2 33.5581H28.0916C24.3916 33.5581 22.6083 32.0997 22.3 28.8331C22.2666 28.4914 22.5166 28.1831 22.8666 28.1497C23.2083 28.1164 23.5166 28.3747 23.55 28.7164C23.7916 31.3331 25.025 32.3081 28.1 32.3081H28.2083C31.6 32.3081 32.8 31.1081 32.8 27.7164V22.2831C32.8 18.8914 31.6 17.6914 28.2083 17.6914H28.1C25.0083 17.6914 23.775 18.6831 23.55 21.3497C23.5083 21.6914 23.225 21.9497 22.8666 21.9164C22.5166 21.8914 22.2666 21.5831 22.2916 21.2414C22.575 17.9247 24.3666 16.4414 28.0916 16.4414H28.2C32.2916 16.4414 34.0416 18.1914 34.0416 22.2831V27.7164C34.0416 31.8081 32.2916 33.5581 28.2 33.5581Z" fill="#CD0C0C"/>
<path d="M27.9 25.625H17.1666C16.825 25.625 16.5416 25.3417 16.5416 25C16.5416 24.6583 16.825 24.375 17.1666 24.375H27.9C28.2416 24.375 28.525 24.6583 28.525 25C28.525 25.3417 28.25 25.625 27.9 25.625Z" fill="#CD0C0C"/>
<path d="M26.0416 28.4162C25.8833 28.4162 25.725 28.3579 25.6 28.2329C25.3583 27.9912 25.3583 27.5912 25.6 27.3495L27.95 24.9995L25.6 22.6495C25.3583 22.4079 25.3583 22.0079 25.6 21.7662C25.8416 21.5245 26.2416 21.5245 26.4833 21.7662L29.275 24.5579C29.5166 24.7995 29.5166 25.1995 29.275 25.4412L26.4833 28.2329C26.3583 28.3579 26.2 28.4162 26.0416 28.4162Z" fill="#CD0C0C"/>
</svg>
