<svg width="187" height="36" viewBox="0 0 187 36" fill="none" xmlns="http://www.w3.org/2000/svg">
<path d="M19.0968 34H16.1291M16.1291 34H15.0968C14.0278 34 13.1613 33.1334 13.1613 32.0646V25.2258C13.1613 24.1568 12.2948 23.2903 11.2258 23.2903H7.22582C6.15688 23.2903 5.29034 22.4237 5.29034 21.3548V16.3226C5.29034 15.2536 6.15688 14.3871 7.22582 14.3871H11.2258C12.2948 14.3871 13.1613 13.5205 13.1613 12.4516V5.74188C13.1613 4.67294 14.0278 3.8064 15.0968 3.8064H16.1291H3.93548C2.86655 3.8064 2 4.67294 2 5.74188V32.0646C2 33.1334 2.86655 34 3.93548 34H16.1291Z" stroke="#007BFF" stroke-width="2.5"/>
<path d="M18.0645 2H21.0321M21.0321 2H22.0645C23.1334 2 24 2.86655 24 3.93549V10.7742C24 11.8432 24.8665 12.7097 25.9355 12.7097H29.9353C31.0043 12.7097 31.8708 13.5763 31.8708 14.6452V19.6776C31.8708 20.7463 31.0043 21.6129 29.9353 21.6129H25.9355C24.8665 21.6129 24 22.4794 24 23.5484V30.2582C24 31.3272 23.1334 32.1937 22.0645 32.1937H21.0321H33.2257C34.2947 32.1937 35.1612 31.3272 35.1612 30.2582V3.93549C35.1612 2.86655 34.2947 2 33.2257 2H21.0321Z" stroke="#007BFF" stroke-width="2.5"/>
<path d="M47.1611 10.2125H50.2257L55.5539 22.2845H55.75L61.0783 10.2125H64.1429V25.7422H61.7403V14.5041H61.585L56.649 25.7194H54.655L49.719 14.4965H49.5637V25.7422H47.1611V10.2125ZM68.2745 25.7422V10.2125H78.7675V12.2294H70.7996V16.9613H78.22V18.9706H70.7996V23.7253H78.8656V25.7422H68.2745ZM88.0189 25.7422H82.6008V10.2125H88.1905C89.8304 10.2125 91.2388 10.5232 92.4156 11.145C93.5924 11.7617 94.494 12.6489 95.1206 13.8065C95.7525 14.9591 96.0685 16.342 96.0685 17.9547C96.0685 19.572 95.7498 20.9626 95.1124 22.1253C94.4804 23.2881 93.5651 24.1829 92.3665 24.8093C91.168 25.4311 89.7188 25.7422 88.0189 25.7422ZM85.126 23.6948H87.88C89.1549 23.6948 90.2145 23.4726 91.059 23.0278C91.9034 22.5778 92.5354 21.9281 92.9549 21.0785C93.3745 20.2243 93.5842 19.1831 93.5842 17.9547C93.5842 16.7361 93.3745 15.7024 92.9549 14.8529C92.5409 14.0038 91.9225 13.3591 91.0999 12.9194C90.2772 12.4796 89.2557 12.2599 88.0353 12.2599H85.126V23.6948ZM99.6689 10.2125H102.733L108.062 22.2845H108.258L113.586 10.2125H116.651V25.7422H114.248V14.5041H114.093L109.157 25.7194H107.163L102.227 14.4965H102.071V25.7422H99.6689V10.2125ZM120.782 25.7422V10.2125H131.275V12.2294H123.307V16.9613H130.728V18.9706H123.307V23.7253H131.373V25.7422H120.782ZM135.108 10.2125H138.173L143.501 22.2845H143.698L149.026 10.2125H152.09V25.7422H149.688V14.5041H149.532L144.596 25.7194H142.602L137.667 14.4965H137.511V25.7422H135.108V10.2125ZM170.76 17.9771C170.76 19.6356 170.434 21.0612 169.779 22.254C169.126 23.4421 168.229 24.3573 167.091 24.9989C165.958 25.636 164.669 25.9547 163.226 25.9547C161.776 25.9547 160.482 25.636 159.344 24.9989C158.21 24.3573 157.317 23.4396 156.663 22.2463C156.009 21.0536 155.682 19.6305 155.682 17.9771C155.682 16.3192 156.009 14.8961 156.663 13.7079C157.317 12.5152 158.21 11.6 159.344 10.9629C160.482 10.3208 161.776 10 163.226 10C164.669 10 165.958 10.3208 167.091 10.9629C168.229 11.6 169.126 12.5152 169.779 13.7079C170.434 14.8961 170.76 16.3192 170.76 17.9771ZM168.259 17.9771C168.259 16.7132 168.039 15.6491 167.598 14.7847C167.162 13.9153 166.562 13.258 165.8 12.8131C165.043 12.3631 164.184 12.1384 163.226 12.1384C162.261 12.1384 161.4 12.3631 160.643 12.8131C159.886 13.258 159.287 13.9153 158.845 14.7847C158.409 15.6491 158.191 16.7132 158.191 17.9771C158.191 19.2411 158.409 20.3077 158.845 21.1771C159.287 22.0419 159.886 22.6988 160.643 23.1488C161.4 23.5936 162.261 23.8163 163.226 23.8163C164.184 23.8163 165.043 23.5936 165.8 23.1488C166.562 22.6988 167.162 22.0419 167.598 21.1771C168.039 20.3077 168.259 19.2411 168.259 17.9771ZM183.497 14.2921C183.41 13.5742 183.05 13.018 182.418 12.6235C181.787 12.2243 180.991 12.0245 180.032 12.0245C179.346 12.0245 178.752 12.1257 178.251 12.3281C177.749 12.5253 177.36 12.7978 177.082 13.1471C176.81 13.4908 176.673 13.8823 176.673 14.3221C176.673 14.6912 176.766 15.01 176.951 15.2779C177.142 15.5459 177.39 15.7706 177.695 15.9526C178.005 16.1295 178.338 16.2785 178.692 16.4C179.046 16.5164 179.387 16.6125 179.713 16.6883L181.348 17.0823C181.882 17.2038 182.429 17.368 182.99 17.5755C183.551 17.7824 184.072 18.0554 184.551 18.3945C185.031 18.7331 185.418 19.1526 185.712 19.6529C186.012 20.1537 186.161 20.7526 186.161 21.4501C186.161 22.3297 185.916 23.1112 185.426 23.7935C184.941 24.4758 184.235 25.0142 183.309 25.4087C182.388 25.8027 181.274 26 179.967 26C178.714 26 177.629 25.8154 176.714 25.4463C175.799 25.0772 175.083 24.554 174.565 23.8768C174.047 23.1945 173.761 22.3856 173.707 21.4501H176.24C176.289 22.0114 176.485 22.4792 176.828 22.8529C177.177 23.222 177.621 23.4975 178.16 23.6796C178.706 23.8565 179.302 23.945 179.95 23.945C180.664 23.945 181.299 23.8412 181.854 23.6343C182.416 23.4218 182.857 23.1284 183.178 22.7547C183.5 22.3755 183.66 21.9331 183.66 21.4273C183.66 20.9677 183.519 20.5909 183.236 20.2976C182.957 20.0042 182.579 19.7617 182.099 19.5695C181.625 19.3778 181.089 19.208 180.49 19.0616L178.512 18.5613C177.172 18.2227 176.109 17.7244 175.325 17.0676C174.546 16.4102 174.156 15.5408 174.156 14.4589C174.156 13.564 174.418 12.7831 174.941 12.1155C175.464 11.4485 176.172 10.9299 177.066 10.5613C177.959 10.1871 178.967 10 180.089 10C181.223 10 182.222 10.1846 183.088 10.5537C183.96 10.9228 184.647 11.4307 185.148 12.0779C185.649 12.7195 185.911 13.4578 185.932 14.2921H183.497Z" fill="#007BFF"/>
</svg>
