<svg width="26" height="26" viewBox="0 0 26 26" fill="none" xmlns="http://www.w3.org/2000/svg">
<path fill-rule="evenodd" clip-rule="evenodd" d="M1 5V21C1 22.0609 1.36122 23.0783 2.00421 23.8284C2.64719 24.5786 3.51926 25 4.42857 25H21.5714C22.4807 25 23.3528 24.5786 23.9958 23.8284C24.6388 23.0783 25 22.0609 25 21V5C25 3.93913 24.6388 2.92172 23.9958 2.17157C23.3528 1.42143 22.4807 1 21.5714 1H4.42857C3.51926 1 2.64719 1.42143 2.00421 2.17157C1.36122 2.92172 1 3.93913 1 5Z" stroke="black" stroke-linecap="round" stroke-linejoin="round"/>
<path d="M4.42871 7L13.0001 13L21.5716 7" stroke="black" stroke-linecap="round" stroke-linejoin="round"/>
</svg>
