<svg width="80" height="80" viewBox="0 0 80 80" fill="none" xmlns="http://www.w3.org/2000/svg">
<path d="M10 40.001C10 43.9406 10.776 47.8417 12.2836 51.4815C13.7913 55.1212 16.001 58.4284 18.7868 61.2142C21.5726 63.9999 24.8797 66.2097 28.5195 67.7174C32.1593 69.225 36.0603 70.001 40 70.001C43.9397 70.001 47.8407 69.225 51.4805 67.7174C55.1203 66.2097 58.4274 63.9999 61.2132 61.2142C63.999 58.4284 66.2087 55.1212 67.7164 51.4815C69.224 47.8417 70 43.9406 70 40.001C70 36.0613 69.224 32.1602 67.7164 28.5205C66.2087 24.8807 63.999 21.5735 61.2132 18.7878C58.4274 16.002 55.1203 13.7922 51.4805 12.2846C47.8407 10.7769 43.9397 10.001 40 10.001C36.0603 10.001 32.1593 10.7769 28.5195 12.2846C24.8797 13.7922 21.5726 16.002 18.7868 18.7878C16.001 21.5735 13.7913 24.8807 12.2836 28.5205C10.776 32.1602 10 36.0613 10 40.001Z" stroke="#E67E22" stroke-width="3" stroke-linecap="round" stroke-linejoin="round"/>
<path d="M33.3333 55.001L40 45.001M40 45.001L46.6667 55.001M40 45.001V38.3343M40 38.3343L50 35.001M40 38.3343L30 35.001" stroke="#E67E22" stroke-width="3" stroke-linecap="round" stroke-linejoin="round"/>
<path d="M39.9999 26.6673C40.9204 26.6673 41.6666 25.9211 41.6666 25.0007C41.6666 24.0802 40.9204 23.334 39.9999 23.334C39.0794 23.334 38.3333 24.0802 38.3333 25.0007C38.3333 25.9211 39.0794 26.6673 39.9999 26.6673Z" fill="#E67E22" stroke="#E67E22" stroke-width="3" stroke-linecap="round" stroke-linejoin="round"/>
</svg>
