<svg width="20" height="20" viewBox="0 0 20 20" fill="none" xmlns="http://www.w3.org/2000/svg">
<path d="M10 16.4584C6.9 16.4584 4.375 13.9334 4.375 10.8334V6.66675C4.375 3.56675 6.9 1.04175 10 1.04175C13.1 1.04175 15.625 3.56675 15.625 6.66675V10.8334C15.625 13.9334 13.1 16.4584 10 16.4584ZM10 2.29175C7.59167 2.29175 5.625 4.25008 5.625 6.66675V10.8334C5.625 13.2501 7.59167 15.2084 10 15.2084C12.4083 15.2084 14.375 13.2501 14.375 10.8334V6.66675C14.375 4.25008 12.4083 2.29175 10 2.29175Z" fill="#71839B"/>
<path d="M10 18.9584C5.51667 18.9584 1.875 15.3167 1.875 10.8334V9.16675C1.875 8.82508 2.15833 8.54175 2.5 8.54175C2.84167 8.54175 3.125 8.82508 3.125 9.16675V10.8334C3.125 14.6251 6.20833 17.7084 10 17.7084C13.7917 17.7084 16.875 14.6251 16.875 10.8334V9.16675C16.875 8.82508 17.1583 8.54175 17.5 8.54175C17.8417 8.54175 18.125 8.82508 18.125 9.16675V10.8334C18.125 15.3167 14.4833 18.9584 10 18.9584Z" fill="#71839B"/>
<path d="M12.175 6.85824C12.1083 6.85824 12.0333 6.8499 11.9583 6.8249C10.6167 6.34157 9.14167 6.34157 7.8 6.8249C7.48333 6.94157 7.125 6.7749 7.00833 6.4499C6.89167 6.1249 7.05833 5.76657 7.38333 5.6499C9 5.06657 10.775 5.06657 12.3917 5.6499C12.7167 5.76657 12.8833 6.1249 12.7667 6.4499C12.675 6.70824 12.4333 6.85824 12.175 6.85824Z" fill="#71839B"/>
<path d="M11.4167 9.35824C11.3667 9.35824 11.3083 9.3499 11.25 9.33324C10.3583 9.09157 9.41668 9.09157 8.52501 9.33324C8.18335 9.4249 7.85002 9.2249 7.75835 8.89157C7.66668 8.55824 7.86668 8.21657 8.20002 8.1249C9.30835 7.8249 10.475 7.8249 11.5833 8.1249C11.9167 8.21657 12.1167 8.55824 12.025 8.89157C11.9417 9.18324 11.6917 9.35824 11.4167 9.35824Z" fill="#71839B"/>
</svg>
