<svg width="20" height="20" viewBox="0 0 20 20" fill="none" xmlns="http://www.w3.org/2000/svg">
<path d="M12.125 18.6834C11.85 18.6834 11.5917 18.5001 11.5167 18.2168C11.425 17.8834 11.625 17.5417 11.9667 17.4501C15.35 16.5584 17.7084 13.4917 17.7084 9.99175C17.7084 5.74175 14.25 2.28341 10 2.28341C6.39169 2.28341 4.02502 4.39175 2.91669 5.66675H5.36669C5.70835 5.66675 5.99169 5.95008 5.99169 6.29175C5.99169 6.63342 5.71669 6.92508 5.36669 6.92508H1.67502C1.63335 6.92508 1.55835 6.91675 1.50002 6.90008C1.42502 6.87508 1.35835 6.84175 1.30002 6.80008C1.22502 6.75008 1.16669 6.68342 1.12502 6.60842C1.08335 6.53342 1.05002 6.44175 1.04169 6.35008C1.04169 6.32508 1.04169 6.30842 1.04169 6.28342V2.50008C1.04169 2.15841 1.32502 1.87508 1.66669 1.87508C2.00835 1.87508 2.29169 2.15841 2.29169 2.50008V4.49175C3.65002 3.03341 6.20835 1.04175 10 1.04175C14.9417 1.04175 18.9584 5.05842 18.9584 10.0001C18.9584 14.0667 16.2167 17.6334 12.2834 18.6667C12.2334 18.6751 12.175 18.6834 12.125 18.6834Z" fill="#71839B"/>
<path d="M9.40835 18.9417C9.39169 18.9417 9.37502 18.9333 9.36669 18.9333C8.46669 18.875 7.58335 18.675 6.75002 18.35C6.50835 18.2583 6.34169 18.0167 6.35002 17.7583C6.35002 17.6833 6.36669 17.6083 6.39169 17.5417C6.51669 17.225 6.89169 17.0667 7.20002 17.1833C7.92502 17.4667 8.68335 17.6333 9.45002 17.6917C9.77502 17.7083 10.0334 17.9917 10.0334 18.325L10.025 18.3583C10.0084 18.6833 9.73335 18.9417 9.40835 18.9417ZM4.81669 17.15C4.67502 17.15 4.54169 17.1 4.42502 17.0167C3.72502 16.45 3.10835 15.7917 2.60835 15.0583C2.53335 14.95 2.49169 14.8333 2.49169 14.7083C2.49169 14.5 2.59169 14.3083 2.76669 14.1917C3.04169 14 3.44169 14.075 3.63335 14.3417C3.63335 14.35 3.63335 14.35 3.63335 14.35C3.64169 14.3583 3.65002 14.375 3.65835 14.3833C4.09169 15.0083 4.61669 15.5667 5.20835 16.0333C5.35002 16.15 5.44169 16.325 5.44169 16.5167C5.44169 16.6583 5.40002 16.8 5.30835 16.9167C5.18335 17.0667 5.00835 17.15 4.81669 17.15ZM2.03335 13.0833C1.75835 13.0833 1.51669 12.9083 1.44169 12.65C1.17502 11.7917 1.04169 10.9 1.04169 10V9.99167C1.05002 9.65 1.32502 9.375 1.66669 9.375C2.00835 9.375 2.29169 9.65833 2.29169 10C2.29169 10.7833 2.40835 11.55 2.63335 12.275C2.65002 12.3417 2.65835 12.4 2.65835 12.4667C2.65835 12.7333 2.48335 12.975 2.21669 13.0583C2.15835 13.075 2.10002 13.0833 2.03335 13.0833Z" fill="#71839B"/>
</svg>
