<svg width="52" height="52" viewBox="0 0 52 52" fill="none" xmlns="http://www.w3.org/2000/svg">
<g filter="url(#filter0_d_1549_11341)">
<rect x="2" y="1" width="48" height="48" rx="10" fill="#D1FADF"/>
<rect x="2.5" y="1.5" width="47" height="47" rx="9.5" stroke="#EAECF0"/>
<path d="M25.302 34.6152C25.5234 34.7444 25.6341 34.809 25.7903 34.8425C25.9116 34.8685 26.0884 34.8685 26.2097 34.8425C26.3659 34.809 26.4766 34.7444 26.698 34.6152C28.646 33.4788 34 29.9088 34 25.0004V20.218C34 19.4184 34 19.0187 33.8692 18.6751C33.7537 18.3715 33.566 18.1006 33.3223 17.8859C33.0465 17.6428 32.6722 17.5024 31.9236 17.2217L26.5618 15.211C26.3539 15.1331 26.25 15.0941 26.143 15.0786C26.0482 15.0649 25.9518 15.0649 25.857 15.0786C25.75 15.0941 25.6461 15.1331 25.4382 15.211L20.0764 17.2217C19.3278 17.5024 18.9535 17.6428 18.6777 17.8859C18.434 18.1006 18.2463 18.3715 18.1308 18.6751C18 19.0187 18 19.4184 18 20.218V25.0004C18 29.9088 23.354 33.4788 25.302 34.6152Z" stroke="#344054" stroke-width="2" stroke-linecap="round" stroke-linejoin="round"/>
</g>
<defs>
<filter id="filter0_d_1549_11341" x="0" y="0" width="52" height="52" filterUnits="userSpaceOnUse" color-interpolation-filters="sRGB">
<feFlood flood-opacity="0" result="BackgroundImageFix"/>
<feColorMatrix in="SourceAlpha" type="matrix" values="0 0 0 0 0 0 0 0 0 0 0 0 0 0 0 0 0 0 127 0" result="hardAlpha"/>
<feOffset dy="1"/>
<feGaussianBlur stdDeviation="1"/>
<feColorMatrix type="matrix" values="0 0 0 0 0.0627451 0 0 0 0 0.0941176 0 0 0 0 0.156863 0 0 0 0.05 0"/>
<feBlend mode="normal" in2="BackgroundImageFix" result="effect1_dropShadow_1549_11341"/>
<feBlend mode="normal" in="SourceGraphic" in2="effect1_dropShadow_1549_11341" result="shape"/>
</filter>
</defs>
</svg>
