<svg width="110" height="51" viewBox="0 0 110 51" fill="none" xmlns="http://www.w3.org/2000/svg">
<path opacity="0.6" d="M16.173 16.6116L11.4145 23.5H0.5V24.5H11.4145L16.6331 30.543C18.7334 32.975 22.4168 33.2782 24.9196 31.2628C27.4478 29.227 31.1824 29.5994 33.2169 32.1287L35.7923 35.3302C37.1678 37.0402 39.836 36.8179 40.9095 34.9038C42.072 32.8312 45.0387 32.7844 46.2658 34.8194L52.921 45.8553C55.5886 50.2789 61.4242 51.5541 65.6939 48.6464L65.8483 48.5413C66.9335 47.8023 67.8438 46.8348 68.5155 45.7067L72.1619 39.5825C74.1778 36.1967 78.8179 35.5635 81.6674 38.2853C84.1667 40.6726 88.1441 40.5241 90.4584 37.957L94.3736 33.6141C95.4036 32.4717 97.2505 32.6755 98.0065 34.015C99.0045 35.7831 101.649 35.431 102.149 33.4633L103.752 27.1617C104.3 25.0078 106.239 23.5 108.462 23.5H109.5V23H108.409C106.436 23 104.638 21.8664 103.787 20.0857L101.294 14.8695C100.165 12.5058 96.7199 12.7632 95.9543 15.2686C95.3247 17.3291 92.7353 17.9891 91.1962 16.4814L89.017 14.3467C86.9486 12.3205 83.5612 12.6131 81.8709 14.9639L81.5015 15.4777C79.117 18.7938 74.0298 18.2548 72.3932 14.5127L68.6843 6.03244C67.9136 4.27031 66.5821 2.81235 64.8969 1.88546C60.9089 -0.308012 55.9046 0.934116 53.4052 4.73787L47.0426 14.421C45.561 16.6757 42.1529 16.3217 41.1664 13.8106C40.1519 11.2283 36.608 10.9495 35.2023 13.3415L33.4187 16.3764C31.582 19.5017 27.1453 19.7236 25.006 16.7971L24.7862 16.4965C22.6403 13.561 18.2397 13.6198 16.173 16.6116Z" fill="#008080"/>
</svg>
