<svg width="132" height="132" viewBox="0 0 132 132" fill="none" xmlns="http://www.w3.org/2000/svg">
<rect x="7" y="7" width="118" height="118" rx="59" fill="#007BFF"/>
<rect x="7" y="7" width="118" height="118" rx="59" stroke="#E9ECEF" stroke-width="14"/>
<path d="M74.2017 67.855C74.2017 70.0302 73.3376 72.1163 71.7995 73.6545C70.2614 75.1926 68.1752 76.0567 66 76.0567C63.8248 76.0567 61.7387 75.1926 60.2006 73.6545C58.6624 72.1163 57.7983 70.0302 57.7983 67.855V51.4517C57.7983 49.2764 58.6624 47.1903 60.2006 45.6522C61.7387 44.1141 63.8248 43.25 66 43.25C68.1752 43.25 70.2614 44.1141 71.7995 45.6522C73.3376 47.1903 74.2017 49.2764 74.2017 51.4517V67.855Z" stroke="#E9ECEF" stroke-width="3" stroke-linecap="round" stroke-linejoin="round"/>
<path d="M79.9055 67.8552C79.9055 75.5342 73.6801 81.7607 66 81.7607M66 81.7607C58.3198 81.7607 52.0945 75.5342 52.0945 67.854M66 81.7607V88.7502" stroke="#E9ECEF" stroke-width="3" stroke-linecap="round" stroke-linejoin="round"/>
</svg>
