<svg width="26" height="24" viewBox="0 0 26 24" fill="none" xmlns="http://www.w3.org/2000/svg">
<path d="M11.5253 0.778036C11.9621 -0.259346 13.4496 -0.259345 13.8864 0.778038L16.4641 6.90085C16.6484 7.33819 17.0647 7.637 17.5426 7.67485L24.2335 8.20479C25.3671 8.29457 25.8268 9.69221 24.9631 10.4231L19.8653 14.7371C19.5012 15.0453 19.3421 15.5288 19.4534 15.9895L21.0108 22.4398C21.2747 23.5327 20.0713 24.3965 19.1007 23.8109L13.3723 20.3542C12.9632 20.1073 12.4486 20.1073 12.0394 20.3542L6.31099 23.8109C5.34042 24.3965 4.13697 23.5327 4.40085 22.4398L5.95832 15.9895C6.06956 15.5288 5.91054 15.0453 5.54644 14.7371L0.448596 10.4231C-0.415123 9.69221 0.0445568 8.29457 1.1782 8.20479L7.8692 7.67485C8.34712 7.637 8.76343 7.33819 8.94756 6.90085L11.5253 0.778036Z" fill="#FF8400"/>
</svg>
