<svg width="99" height="106" viewBox="0 0 99 106" fill="none" xmlns="http://www.w3.org/2000/svg">
<path d="M1 53.5594C5.34128 53.5594 5.34126 53.4936 9.68254 53.4936C14.0238 53.4936 14.0238 53.989 18.3651 53.989C22.7064 53.989 22.7063 53.3711 27.0476 53.3711C31.3908 53.3711 31.3908 53.4936 35.7321 53.4936" stroke="#008080" stroke-width="1.29755" stroke-linecap="round" stroke-linejoin="round"/>
<path d="M20.4414 82.3331C23.1816 79.7333 23.2971 79.8539 26.0354 77.2541C28.7757 74.6526 29.1586 75.0161 31.8989 72.4145C34.6372 69.8148 34.2542 69.4512 36.9945 66.8496" stroke="#008080" stroke-width="1.29755" stroke-linecap="round" stroke-linejoin="round"/>
<path d="M71.5391 34.6465C73.9541 32.3555 73.8251 32.2221 76.2402 29.9202C78.6552 27.6273 78.7938 27.7479 81.2088 25.4551" stroke="#008080" stroke-width="1.29755" stroke-linecap="round" stroke-linejoin="round"/>
<path d="M23.1016 29.3242C25.8399 31.924 26.294 31.4947 29.0208 34.0853C31.761 36.6851 31.2973 37.1272 34.0356 39.7269C36.7758 42.3285 36.6603 42.4382 39.3987 45.0398" stroke="#008080" stroke-width="1.29755" stroke-linecap="round" stroke-linejoin="round"/>
<path d="M73.8047 77.375C76.2197 79.6678 76.4275 79.4797 78.8425 81.7725C81.2576 84.0653 81.6289 83.7237 84.042 86.0147" stroke="#008080" stroke-width="1.29755" stroke-linecap="round" stroke-linejoin="round"/>
<path d="M71.2649 74.8501C68.1994 71.9416 67.9455 72.1736 64.8685 69.2632C61.7934 66.3547 61.8973 66.2542 58.8203 63.3457" stroke="#008080" stroke-width="1.29755" stroke-linecap="round" stroke-linejoin="round"/>
<path d="M63.1016 53.6796C67.4428 53.6796 67.4428 53.4932 71.7841 53.4932C76.1254 53.4932 76.1254 54.1001 80.4667 54.1001C84.808 54.1001 84.8079 54.1001 89.1492 54.1001C93.4924 54.1001 93.4924 54.122 97.8337 54.122" stroke="#008080" stroke-width="1.29755" stroke-linecap="round" stroke-linejoin="round"/>
<path d="M50.705 39.5735C50.705 35.7607 50.9243 35.7607 50.9243 31.9478C50.9243 28.1331 50.705 28.1331 50.705 24.3312C50.705 20.5293 51.2496 20.5183 51.2496 16.7055C51.2496 12.8926 50.4375 12.8926 50.4375 9.07788C50.4375 5.26501 50.9359 5.26502 50.9359 1.45215" stroke="#008080" stroke-width="1.29755" stroke-linecap="round" stroke-linejoin="round"/>
<path d="M50.6471 105.004C50.6471 100.893 51.2379 100.893 51.2379 96.7826C51.2379 92.672 50.4258 92.672 50.4258 88.5613C50.4258 84.4506 50.8665 84.4506 50.8665 80.34C50.8665 76.2275 50.7741 76.2293 50.7741 72.1168C50.7741 68.0062 51.2956 68.0062 51.2956 63.8955" stroke="#008080" stroke-width="1.29755" stroke-linecap="round" stroke-linejoin="round"/>
</svg>
