<svg width="20" height="20" viewBox="0 0 20 20" fill="none" xmlns="http://www.w3.org/2000/svg">
<path d="M10 18.9587C9.41667 18.9587 8.825 18.7337 8.38333 18.292L6.95831 16.8837C6.60831 16.5337 6.12501 16.342 5.63334 16.342H5C3.275 16.342 1.875 14.9503 1.875 13.242V4.14199C1.875 2.43366 3.275 1.04199 5 1.04199H15C16.725 1.04199 18.125 2.43366 18.125 4.14199V13.2337C18.125 14.942 16.725 16.3337 15 16.3337H14.3667C13.875 16.3337 13.3917 16.5337 13.0417 16.8753L11.6167 18.2837C11.175 18.7337 10.5833 18.9587 10 18.9587ZM5 2.29199C3.96667 2.29199 3.125 3.12533 3.125 4.14199V13.2337C3.125 14.2587 3.96667 15.0837 5 15.0837H5.63334C6.45834 15.0837 7.25831 15.417 7.84164 15.992L9.26666 17.4003C9.675 17.8003 10.3333 17.8003 10.7417 17.4003L12.1666 15.992C12.75 15.417 13.55 15.0837 14.375 15.0837H15C16.0333 15.0837 16.875 14.2503 16.875 13.2337V4.14199C16.875 3.11699 16.0333 2.29199 15 2.29199H5Z" fill="#1E1E1E"/>
<path d="M10.0583 8.08301C10.0417 8.08301 10.0167 8.08301 10 8.08301C9.97501 8.08301 9.9417 8.08301 9.9167 8.08301C8.70003 8.04134 7.75 7.05801 7.75 5.83301C7.75 4.59134 8.75834 3.58301 10 3.58301C11.2417 3.58301 12.25 4.59134 12.25 5.83301C12.2417 7.05801 11.2917 8.04134 10.075 8.08301C10.075 8.08301 10.0667 8.08301 10.0583 8.08301ZM10 4.83301C9.45001 4.83301 9 5.28301 9 5.83301C9 6.37467 9.42502 6.81634 9.95835 6.83301C9.95835 6.82467 10.0084 6.82467 10.0667 6.83301C10.5917 6.79967 11 6.36634 11 5.83301C11 5.28301 10.55 4.83301 10 4.83301Z" fill="#1E1E1E"/>
<path d="M10 13.9171C9.05 13.9171 8.10001 13.6671 7.35835 13.1754C6.65835 12.7087 6.25 12.0337 6.25 11.3171C6.25 10.6004 6.65001 9.91706 7.35835 9.45039C8.84168 8.46706 11.1583 8.46706 12.6333 9.45039C13.3333 9.91706 13.7417 10.6004 13.7417 11.3087C13.7417 12.0254 13.3416 12.7004 12.6333 13.1754C11.9 13.6754 10.95 13.9171 10 13.9171ZM8.04998 10.4921C7.69164 10.7337 7.5 11.0254 7.5 11.3171C7.5 11.6087 7.69998 11.9004 8.04998 12.1421C9.10831 12.8504 10.8833 12.8504 11.9417 12.1421C12.3 11.9004 12.5 11.6087 12.4917 11.3171C12.4917 11.0254 12.2917 10.7337 11.9417 10.4921C10.8917 9.78372 9.10831 9.78372 8.04998 10.4921Z" fill="#1E1E1E"/>
</svg>
