<svg width="20" height="20" viewBox="0 0 20 20" fill="none" xmlns="http://www.w3.org/2000/svg">
<path d="M7.49997 14.7917C7.15831 14.7917 6.87497 14.5084 6.87497 14.1667V10.6751L6.27497 11.2751C6.03331 11.5167 5.6333 11.5167 5.39164 11.2751C5.14997 11.0334 5.14997 10.6334 5.39164 10.3917L7.05831 8.72507C7.23331 8.55007 7.50831 8.49174 7.74164 8.59174C7.97497 8.68341 8.12497 8.91674 8.12497 9.16674V14.1667C8.12497 14.5084 7.84164 14.7917 7.49997 14.7917Z" fill="#71839B"/>
<path d="M9.16666 11.4583C9.00832 11.4583 8.84999 11.4 8.72499 11.275L7.05833 9.60828C6.81666 9.36662 6.81666 8.96662 7.05833 8.72495C7.29999 8.48328 7.69999 8.48328 7.94166 8.72495L9.60832 10.3916C9.84999 10.6333 9.84999 11.0333 9.60832 11.275C9.48332 11.4 9.32499 11.4583 9.16666 11.4583Z" fill="#71839B"/>
<path d="M12.5 18.9584H7.50002C2.97502 18.9584 1.04169 17.0251 1.04169 12.5001V7.50008C1.04169 2.97508 2.97502 1.04175 7.50002 1.04175H11.6667C12.0084 1.04175 12.2917 1.32508 12.2917 1.66675C12.2917 2.00841 12.0084 2.29175 11.6667 2.29175H7.50002C3.65835 2.29175 2.29169 3.65841 2.29169 7.50008V12.5001C2.29169 16.3417 3.65835 17.7084 7.50002 17.7084H12.5C16.3417 17.7084 17.7084 16.3417 17.7084 12.5001V8.33342C17.7084 7.99175 17.9917 7.70842 18.3334 7.70842C18.675 7.70842 18.9584 7.99175 18.9584 8.33342V12.5001C18.9584 17.0251 17.025 18.9584 12.5 18.9584Z" fill="#71839B"/>
<path d="M18.3334 8.95841H15C12.15 8.95841 11.0417 7.85007 11.0417 5.00007V1.66674C11.0417 1.41674 11.1917 1.18341 11.425 1.09174C11.6584 0.991739 11.925 1.05007 12.1084 1.22507L18.775 7.89174C18.95 8.06674 19.0084 8.34174 18.9084 8.57507C18.8084 8.8084 18.5834 8.95841 18.3334 8.95841ZM12.2917 3.17507V5.00007C12.2917 7.15007 12.85 7.70841 15 7.70841H16.825L12.2917 3.17507Z" fill="#71839B"/>
</svg>
