<svg width="264" height="48" viewBox="0 0 264 48" fill="none" xmlns="http://www.w3.org/2000/svg">
<rect width="48" height="48" rx="24" fill="white"/>
<path d="M26 18.5C26 19.8928 25.6121 21.2582 24.8799 22.443C24.1476 23.6278 23.0999 24.5853 21.8541 25.2082C20.6083 25.8311 19.2137 26.0948 17.8265 25.9697C16.4392 25.8446 15.1143 25.3357 14 24.5V32.25C14 33.2446 14.3951 34.1984 15.0983 34.9017C15.8016 35.6049 16.7554 36 17.75 36H26V29.75C26 28.7554 26.3951 27.8016 27.0983 27.0983C27.8016 26.3951 28.7554 26 29.75 26H36V17.75C36 16.7554 35.6049 15.8016 34.9017 15.0983C34.1984 14.3951 33.2446 14 32.25 14H24.5C25.4759 15.2971 26.0025 16.8768 26 18.5ZM27.75 35.625L27.1416 36L27.5 29.75C27.5 29.1533 27.7371 28.581 28.159 28.159C28.581 27.7371 29.1533 27.5 29.75 27.5L36 27.0031L35.625 27.75L27.75 35.625ZM18.5 25C20.2239 25 21.8772 24.3152 23.0962 23.0962C24.3152 21.8772 25 20.2239 25 18.5C25 16.7761 24.3152 15.1228 23.0962 13.9038C21.8772 12.6848 20.2239 12 18.5 12C16.7761 12 15.1228 12.6848 13.9038 13.9038C12.6848 15.1228 12 16.7761 12 18.5C12 20.2239 12.6848 21.8772 13.9038 23.0962C15.1228 24.3152 16.7761 25 18.5 25ZM18.5 14C18.6326 14 18.7598 14.0527 18.8536 14.1464C18.9473 14.2402 19 14.3674 19 14.5V18H22.5C22.6326 18 22.7598 18.0527 22.8536 18.1464C22.9473 18.2402 23 18.3674 23 18.5C23 18.6326 22.9473 18.7598 22.8536 18.8536C22.7598 18.9473 22.6326 19 22.5 19H19V22.5C19 22.6326 18.9473 22.7598 18.8536 22.8536C18.7598 22.9473 18.6326 23 18.5 23C18.3674 23 18.2402 22.9473 18.1464 22.8536C18.0527 22.7598 18 22.6326 18 22.5V19H14.5C14.3674 19 14.2402 18.9473 14.1464 18.8536C14.0527 18.7598 14 18.6326 14 18.5C14 18.3674 14.0527 18.2402 14.1464 18.1464C14.2402 18.0527 14.3674 18 14.5 18H18V14.5C18 14.3674 18.0527 14.2402 18.1464 14.1464C18.2402 14.0527 18.3674 14 18.5 14Z" fill="#008080"/>
<path d="M63.7812 9.24121L71.3523 32.1389H71.6506L79.2074 9.24121H85.0028L74.7472 38.3321H68.2415L58 9.24121H63.7812Z" fill="white"/>
<path d="M95.9226 38.7583C93.7351 38.7583 91.8459 38.3037 90.255 37.3946C88.6735 36.4761 87.4567 35.1787 86.6044 33.5026C85.7521 31.817 85.326 29.8331 85.326 27.5509C85.326 25.3066 85.7521 23.3369 86.6044 21.6418C87.4661 19.9372 88.6688 18.6115 90.2124 17.6645C91.7559 16.7081 93.5694 16.2298 95.6527 16.2298C96.9974 16.2298 98.2663 16.4477 99.4595 16.8833C100.662 17.3094 101.723 17.9723 102.641 18.8719C103.569 19.7715 104.299 20.9173 104.829 22.3094C105.359 23.692 105.624 25.3397 105.624 27.2526V28.8293H87.7408V25.3634H100.695C100.686 24.3785 100.473 23.5026 100.056 22.7355C99.6394 21.959 99.0571 21.3482 98.3089 20.9031C97.5703 20.4581 96.7086 20.2355 95.7237 20.2355C94.6726 20.2355 93.7493 20.4912 92.9538 21.0026C92.1584 21.5045 91.5381 22.1673 91.093 22.9912C90.6574 23.8056 90.4349 24.7005 90.4254 25.6759V28.7014C90.4254 29.9704 90.6574 31.0594 91.1214 31.9685C91.5855 32.8681 92.2341 33.5594 93.0675 34.0423C93.9008 34.5158 94.8762 34.7526 95.9936 34.7526C96.7417 34.7526 97.4188 34.6484 98.0249 34.4401C98.6309 34.2223 99.1565 33.905 99.6016 33.4884C100.047 33.0717 100.383 32.5556 100.61 31.9401L105.411 32.4798C105.108 33.7488 104.531 34.8567 103.678 35.8037C102.835 36.7412 101.756 37.4704 100.44 37.9912C99.1233 38.5026 97.6177 38.7583 95.9226 38.7583Z" fill="white"/>
<path d="M120.869 16.5139V20.4912H108.327V16.5139H120.869ZM111.423 11.2867H116.565V31.7696C116.565 32.4609 116.67 32.9912 116.878 33.3605C117.096 33.7204 117.38 33.9666 117.73 34.0992C118.08 34.2317 118.469 34.298 118.895 34.298C119.217 34.298 119.51 34.2744 119.776 34.227C120.05 34.1797 120.259 34.137 120.401 34.0992L121.267 38.1191C120.992 38.2137 120.599 38.3179 120.088 38.4316C119.586 38.5452 118.971 38.6115 118.241 38.6304C116.954 38.6683 115.794 38.4742 114.761 38.048C113.729 37.6124 112.91 36.9401 112.304 36.031C111.707 35.1219 111.414 33.9855 111.423 32.6219V11.2867Z" fill="white"/>
<path d="M125.866 9.24121H132.315L140.951 30.3208H141.292L149.928 9.24121H156.377V38.3321H151.32V18.3463H151.05L143.011 38.2469H139.232L131.192 18.3037H130.923V38.3321H125.866V9.24121Z" fill="white"/>
<path d="M171.548 38.7583C169.36 38.7583 167.471 38.3037 165.88 37.3946C164.299 36.4761 163.082 35.1787 162.229 33.5026C161.377 31.817 160.951 29.8331 160.951 27.5509C160.951 25.3066 161.377 23.3369 162.229 21.6418C163.091 19.9372 164.294 18.6115 165.837 17.6645C167.381 16.7081 169.194 16.2298 171.278 16.2298C172.622 16.2298 173.891 16.4477 175.085 16.8833C176.287 17.3094 177.348 17.9723 178.266 18.8719C179.194 19.7715 179.924 20.9173 180.454 22.3094C180.984 23.692 181.249 25.3397 181.249 27.2526V28.8293H163.366V25.3634H176.32C176.311 24.3785 176.098 23.5026 175.681 22.7355C175.264 21.959 174.682 21.3482 173.934 20.9031C173.195 20.4581 172.334 20.2355 171.349 20.2355C170.298 20.2355 169.374 20.4912 168.579 21.0026C167.783 21.5045 167.163 22.1673 166.718 22.9912C166.282 23.8056 166.06 24.7005 166.05 25.6759V28.7014C166.05 29.9704 166.282 31.0594 166.746 31.9685C167.21 32.8681 167.859 33.5594 168.692 34.0423C169.526 34.5158 170.501 34.7526 171.619 34.7526C172.367 34.7526 173.044 34.6484 173.65 34.4401C174.256 34.2223 174.781 33.905 175.227 33.4884C175.672 33.0717 176.008 32.5556 176.235 31.9401L181.036 32.4798C180.733 33.7488 180.156 34.8567 179.303 35.8037C178.46 36.7412 177.381 37.4704 176.065 37.9912C174.748 38.5026 173.243 38.7583 171.548 38.7583Z" fill="white"/>
<path d="M185.599 38.3321V16.5139H190.514V20.2213H190.77C191.224 18.9713 191.977 17.9959 193.028 17.2952C194.08 16.585 195.334 16.2298 196.793 16.2298C198.27 16.2298 199.515 16.5897 200.528 17.3094C201.551 18.0196 202.271 18.9903 202.688 20.2213H202.915C203.398 19.0092 204.212 18.0433 205.358 17.3236C206.513 16.5944 207.882 16.2298 209.463 16.2298C211.471 16.2298 213.109 16.8643 214.378 18.1333C215.647 19.4022 216.281 21.2535 216.281 23.6872V38.3321H211.125V24.4827C211.125 23.1285 210.765 22.1389 210.045 21.5139C209.326 20.8795 208.445 20.5622 207.403 20.5622C206.163 20.5622 205.192 20.9505 204.491 21.727C203.8 22.4941 203.455 23.4931 203.455 24.7242V38.3321H198.412V24.2696C198.412 23.1427 198.071 22.2431 197.389 21.5708C196.717 20.8984 195.836 20.5622 194.747 20.5622C194.009 20.5622 193.336 20.7516 192.73 21.1304C192.124 21.4997 191.641 22.0253 191.281 22.7071C190.921 23.3795 190.741 24.1655 190.741 25.0651V38.3321H185.599Z" fill="white"/>
<path d="M231.015 38.7583C228.884 38.7583 227.038 38.2895 225.475 37.352C223.913 36.4145 222.701 35.103 221.839 33.4173C220.986 31.7317 220.56 29.762 220.56 27.5083C220.56 25.2545 220.986 23.28 221.839 21.585C222.701 19.8899 223.913 18.5736 225.475 17.6361C227.038 16.6986 228.884 16.2298 231.015 16.2298C233.146 16.2298 234.992 16.6986 236.555 17.6361C238.117 18.5736 239.325 19.8899 240.177 21.585C241.039 23.28 241.469 25.2545 241.469 27.5083C241.469 29.762 241.039 31.7317 240.177 33.4173C239.325 35.103 238.117 36.4145 236.555 37.352C234.992 38.2895 233.146 38.7583 231.015 38.7583ZM231.043 34.6389C232.199 34.6389 233.165 34.3217 233.941 33.6872C234.718 33.0433 235.295 32.1816 235.674 31.102C236.062 30.0225 236.256 28.8198 236.256 27.4941C236.256 26.1588 236.062 24.9514 235.674 23.8719C235.295 22.7829 234.718 21.9164 233.941 21.2725C233.165 20.6285 232.199 20.3066 231.043 20.3066C229.86 20.3066 228.875 20.6285 228.089 21.2725C227.312 21.9164 226.73 22.7829 226.342 23.8719C225.963 24.9514 225.773 26.1588 225.773 27.4941C225.773 28.8198 225.963 30.0225 226.342 31.102C226.73 32.1816 227.312 33.0433 228.089 33.6872C228.875 34.3217 229.86 34.6389 231.043 34.6389Z" fill="white"/>
<path d="M263.078 22.281L258.391 22.7923C258.258 22.3189 258.026 21.8738 257.695 21.4571C257.373 21.0405 256.937 20.7043 256.388 20.4486C255.839 20.1929 255.166 20.0651 254.371 20.0651C253.301 20.0651 252.401 20.2971 251.672 20.7611C250.952 21.2251 250.597 21.8264 250.607 22.5651C250.597 23.1995 250.829 23.7156 251.303 24.1134C251.786 24.5111 252.581 24.8378 253.689 25.0935L257.411 25.8889C259.475 26.334 261.009 27.0395 262.013 28.0054C263.026 28.9713 263.537 30.2355 263.547 31.798C263.537 33.1711 263.135 34.3833 262.339 35.4344C261.554 36.4761 260.46 37.2905 259.058 37.8776C257.657 38.4647 256.047 38.7583 254.229 38.7583C251.558 38.7583 249.409 38.1995 247.78 37.0821C246.151 35.9552 245.18 34.388 244.868 32.3804L249.882 31.8975C250.109 32.8823 250.592 33.6257 251.331 34.1276C252.07 34.6295 253.031 34.8804 254.214 34.8804C255.436 34.8804 256.416 34.6295 257.155 34.1276C257.903 33.6257 258.277 33.0054 258.277 32.2668C258.277 31.6418 258.036 31.1257 257.553 30.7185C257.079 30.3113 256.34 29.9988 255.337 29.781L251.615 28.9997C249.522 28.5641 247.974 27.8302 246.97 26.798C245.966 25.7564 245.469 24.4401 245.479 22.8492C245.469 21.5045 245.834 20.3397 246.572 19.3548C247.321 18.3605 248.357 17.5935 249.683 17.0537C251.018 16.5045 252.557 16.2298 254.3 16.2298C256.857 16.2298 258.869 16.7744 260.337 17.8634C261.814 18.9524 262.728 20.4249 263.078 22.281Z" fill="white"/>
</svg>
