<svg width="50" height="50" viewBox="0 0 50 50" fill="none" xmlns="http://www.w3.org/2000/svg">
<rect width="50" height="50" rx="25" fill="#D1FADF"/>
<path d="M24.001 23H26.001V28H24.001V23ZM24 29H26V31H24V29Z" fill="#008080"/>
<path d="M26.7679 17.1997C26.4199 16.5447 25.7419 16.1377 24.9999 16.1377C24.2579 16.1377 23.5799 16.5447 23.2319 17.2007L15.8939 31.0637C15.7311 31.3681 15.6505 31.7097 15.6599 32.0549C15.6694 32.4 15.7687 32.7367 15.9479 33.0317C16.1246 33.3281 16.3756 33.5732 16.676 33.743C16.9764 33.9128 17.3159 34.0012 17.6609 33.9997H32.3389C33.0469 33.9997 33.6879 33.6377 34.0529 33.0317C34.2319 32.7365 34.331 32.3999 34.3405 32.0548C34.35 31.7098 34.2695 31.3682 34.1069 31.0637L26.7679 17.1997ZM17.6609 31.9997L24.9999 18.1367L32.3439 31.9997H17.6609Z" fill="#008080"/>
</svg>
