<svg width="228" height="32" viewBox="0 0 228 32" fill="none" xmlns="http://www.w3.org/2000/svg">
<path d="M26 0L29.5922 11.0557H41.2169L31.8123 17.8885L35.4046 28.9443L26 22.1115L16.5954 28.9443L20.1877 17.8885L10.7831 11.0557H22.4078L26 0Z" fill="#ECFE1E"/>
<path d="M70 0L73.5922 11.0557H85.2169L75.8123 17.8885L79.4046 28.9443L70 22.1115L60.5954 28.9443L64.1877 17.8885L54.7831 11.0557H66.4078L70 0Z" fill="#ECFE1E"/>
<path d="M114 0L117.592 11.0557H129.217L119.812 17.8885L123.405 28.9443L114 22.1115L104.595 28.9443L108.188 17.8885L98.7831 11.0557H110.408L114 0Z" fill="#ECFE1E"/>
<path d="M158 0L161.592 11.0557H173.217L163.812 17.8885L167.405 28.9443L158 22.1115L148.595 28.9443L152.188 17.8885L142.783 11.0557H154.408L158 0Z" fill="#ECFE1E"/>
<path d="M202 0L205.592 11.0557H217.217L207.812 17.8885L211.405 28.9443L202 22.1115L192.595 28.9443L196.188 17.8885L186.783 11.0557H198.408L202 0Z" fill="#ECFE1E"/>
</svg>
